<?xml version="1.0" standalone="no"?>
<!DOCTYPE svg PUBLIC "-//W3C//DTD SVG 20010904//EN"
 "http://www.w3.org/TR/2001/REC-SVG-20010904/DTD/svg10.dtd">
<svg version="1.0" xmlns="http://www.w3.org/2000/svg"
 width="112.000000pt" height="112.000000pt" viewBox="0 0 112.000000 112.000000"
 preserveAspectRatio="xMidYMid meet">
<metadata>
Created by potrace 1.14, written by Peter Selinger 2001-2017
</metadata>
<g transform="translate(0.000000,112.000000) scale(0.100000,-0.100000)"
fill="#000000" stroke="none">
<path d="M165 1051 c-13 -22 -22 -103 -15 -145 4 -30 3 -47 -4 -49 -7 -3 -2
-17 12 -36 22 -30 22 -32 6 -63 -9 -17 -21 -65 -26 -106 -9 -78 -23 -112 -78
-199 -26 -42 -34 -66 -38 -121 -5 -73 9 -111 49 -133 17 -9 17 -7 -2 25 -17
29 -20 49 -17 109 2 51 7 74 16 74 9 0 10 -10 6 -34 -11 -57 5 -121 38 -158
16 -19 38 -35 48 -35 10 0 33 -6 51 -14 33 -14 41 -16 57 -16 22 0 49 -40 45
-64 -7 -32 -16 -39 -83 -61 -30 -10 -50 -20 -44 -22 6 -2 35 5 63 16 51 19 52
19 46 0 -4 -10 -2 -19 2 -19 5 0 14 26 21 57 l12 57 -54 50 c-33 31 -58 66
-66 89 -14 44 -8 60 10 26 21 -37 91 -108 130 -130 39 -22 50 -49 50 -121 0
-16 4 -28 9 -28 5 0 7 9 4 20 -3 11 0 32 6 48 11 26 14 27 91 27 l80 0 0 -32
c0 -24 -4 -31 -14 -27 -8 3 -23 1 -33 -6 -15 -10 -14 -10 9 -6 20 5 28 2 31
-11 7 -32 26 32 21 69 -7 42 13 92 56 142 38 43 63 36 34 -10 l-18 -29 21 18
c12 10 27 32 33 48 7 16 16 29 21 29 19 0 19 -23 -1 -55 -12 -19 -18 -35 -13
-35 5 0 19 20 32 43 21 38 51 59 51 35 0 -4 7 -8 15 -8 20 0 19 -2 -10 -60
-17 -34 -46 -66 -89 -100 -35 -27 -66 -60 -69 -72 -9 -32 1 -35 12 -4 13 33
27 33 35 1 4 -16 13 -25 26 -25 24 0 25 8 3 32 -13 15 -14 18 -1 18 34 0 135
-23 161 -37 16 -8 31 -12 34 -9 10 10 -56 35 -123 47 -100 16 -99 15 -57 51
21 18 40 35 43 38 3 3 13 11 23 19 15 12 17 12 11 -4 -8 -20 5 -15 38 13 11 9
18 11 18 4 0 -6 -8 -15 -17 -21 -10 -5 -15 -12 -11 -16 8 -8 45 11 77 39 l24
21 -18 -28 c-26 -40 -13 -43 29 -6 20 17 33 24 30 15 -13 -33 6 -15 27 26 39
77 63 203 51 272 -6 35 -8 37 -21 22 -13 -16 -15 -15 -26 10 -10 25 -8 31 12
49 l23 20 -29 60 -30 59 31 34 c17 21 26 38 20 44 -5 5 -5 34 0 71 12 80 1
186 -18 194 -23 8 -132 -24 -192 -57 -49 -26 -56 -28 -76 -15 -69 45 -263 56
-353 20 -42 -17 -42 -17 -75 9 -68 51 -167 82 -183 57z m103 -25 c27 -14 51
-56 32 -56 -12 0 -32 28 -23 32 4 3 3 3 -4 2 -6 -2 -23 6 -36 17 -27 20 -42
25 -32 9 3 -5 1 -18 -4 -29 -17 -31 -21 -93 -9 -136 6 -22 12 -47 12 -55 1
-16 8 -17 44 -5 12 4 22 13 22 20 0 8 8 11 20 8 14 -4 20 0 20 11 0 12 7 15
25 12 14 -3 25 -3 25 -1 0 2 3 11 7 21 5 14 2 16 -16 11 -14 -3 -21 -1 -18 6
2 7 19 13 37 14 18 1 49 5 69 9 77 15 87 11 51 -21 -14 -12 -18 -25 -14 -39 6
-20 6 -20 -13 2 -25 27 -53 32 -32 5 7 -10 9 -15 5 -11 -5 4 -21 -2 -37 -13
-15 -11 -53 -31 -83 -44 -30 -13 -57 -29 -61 -34 -8 -14 1 -14 28 0 13 7 9 -1
-12 -20 -19 -17 -31 -34 -28 -38 4 -4 13 -1 19 5 19 19 33 14 15 -6 -10 -10
-17 -24 -17 -31 0 -8 -6 -11 -15 -7 -10 4 -15 -1 -15 -14 0 -11 -7 -20 -15
-20 -19 0 -19 11 0 36 19 25 19 35 0 28 -8 -4 -15 -12 -15 -20 0 -8 -7 -14
-16 -14 -11 0 -15 -6 -11 -20 3 -11 1 -23 -4 -26 -5 -3 -7 -10 -4 -15 4 -5 0
-16 -9 -24 -20 -21 -29 -19 -16 4 5 11 10 42 10 69 0 32 8 65 25 98 l25 48
-27 28 c-15 15 -22 28 -16 28 6 0 8 26 6 73 -6 95 6 127 46 122 16 -2 43 -11
59 -19z m780 -147 c-3 -145 -6 -155 -53 -182 -19 -10 -16 45 6 102 29 78 32
97 19 154 -7 36 -7 53 1 63 24 29 30 -1 27 -137z m-63 131 c-3 -5 -12 -10 -18
-10 -14 0 -48 -36 -41 -43 3 -3 -11 -30 -31 -62 l-37 -57 25 -26 c13 -15 23
-32 20 -38 -2 -6 4 -17 14 -25 15 -12 16 -12 8 1 -8 13 -7 13 8 1 18 -15 23
-26 7 -16 -18 11 -11 -11 10 -30 11 -10 22 -26 25 -36 4 -11 11 -17 16 -13 5
3 7 10 4 15 -4 5 -4 9 -1 9 3 0 10 -10 17 -21 7 -13 7 -19 1 -15 -6 3 -13 2
-16 -3 -3 -5 1 -11 8 -14 8 -3 20 -15 26 -26 9 -18 8 -20 -7 -14 -21 8 -53 42
-53 56 0 5 -7 7 -15 3 -8 -3 -15 0 -15 6 0 6 -3 9 -6 5 -3 -3 6 -21 20 -39
l25 -34 -23 -47 -23 -48 -27 41 c-24 36 -26 46 -17 68 19 46 30 93 21 87 -5
-3 -12 0 -16 6 -4 8 -11 4 -19 -11 -8 -15 -15 -19 -19 -11 -4 6 -2 11 5 11 7
0 10 3 7 6 -4 3 -16 1 -27 -6 -27 -14 -27 -6 0 19 27 24 19 62 -7 40 -14 -11
-20 -10 -39 14 -13 14 -25 22 -27 16 -6 -18 -58 12 -58 34 0 14 5 18 20 14 25
-6 27 24 6 65 -14 26 -13 29 6 39 17 9 19 8 14 -9 -5 -13 -1 -22 10 -26 9 -4
19 -4 22 -1 3 3 0 5 -6 5 -7 0 -12 7 -12 15 0 14 12 20 33 16 5 -1 6 3 2 8 -7
13 92 64 106 55 6 -3 18 1 27 9 14 12 33 22 50 26 2 1 0 -3 -3 -9z m-697 -59
c29 -51 28 -55 -13 -76 -33 -19 -64 -13 -35 5 12 8 11 10 -4 10 -15 0 -17 3
-9 11 8 8 8 20 3 35 -7 19 -6 24 5 24 8 0 15 7 15 15 0 26 16 16 38 -24z m75
11 l27 -28 -38 0 c-29 1 -38 5 -39 19 -1 9 3 17 8 17 6 0 7 5 4 10 -13 21 12
9 38 -18z m251 6 c3 3 6 0 6 -6 0 -16 -17 -24 -25 -12 -13 21 -24 9 -19 -19 6
-28 4 -30 -24 -29 -21 1 -29 5 -26 17 14 76 11 72 48 57 19 -8 37 -12 40 -8z
m-4 12 c0 -5 -2 -10 -4 -10 -3 0 -8 5 -11 10 -3 6 -1 10 4 10 6 0 11 -4 11
-10z m-176 -29 c-19 -18 -34 -19 -34 0 0 6 4 8 8 5 4 -2 14 -1 22 5 24 14 25
11 4 -10z m336 -2 c16 -9 16 -9 -15 -14 -11 -1 -29 -6 -40 -11 -18 -7 -18 -6
-7 9 8 9 11 21 7 28 -8 12 25 5 55 -12z m234 4 c-4 -10 -7 -30 -6 -45 1 -16
-3 -28 -7 -28 -5 0 -7 -9 -4 -20 3 -11 0 -20 -6 -20 -8 0 -9 -5 -1 -19 14 -27
13 -31 -10 -31 -12 0 -20 -7 -20 -16 0 -13 -3 -14 -14 -5 -8 7 -16 8 -18 4 -3
-4 -4 -3 -2 3 1 7 -8 22 -21 34 -23 22 -24 24 -8 54 31 61 74 106 100 106 20
0 24 -3 17 -17z m-460 -89 c24 -35 18 -99 -9 -99 -24 0 -50 63 -41 100 8 32
29 32 50 -1z m135 13 c-4 -32 2 -46 16 -41 18 7 19 -5 1 -28 -8 -11 -27 -18
-48 -18 -40 0 -78 -28 -81 -58 0 -12 -4 -19 -8 -16 -10 6 1 41 16 54 10 9 10
19 0 54 -9 30 -10 47 -3 54 15 15 109 14 107 -1z m-369 -5 c0 -13 -12 -22 -22
-16 -10 6 -1 24 13 24 5 0 9 -4 9 -8z m148 -53 c12 -19 11 -19 -8 -9 -11 6
-20 15 -20 20 0 17 15 11 28 -11z m-97 -46 c12 -15 12 -16 -4 -10 -10 4 -26 7
-35 7 -15 0 -15 2 -2 10 21 13 25 13 41 -7z m95 -93 c24 -22 53 -40 64 -40
l21 0 -20 29 c-12 16 -21 32 -21 36 0 6 41 -23 82 -59 13 -12 23 -13 47 -3 25
9 38 8 78 -8 40 -17 52 -28 72 -69 l25 -49 -30 -23 c-16 -13 -47 -31 -69 -39
-39 -15 -39 -15 -6 -10 18 3 50 15 70 27 20 13 40 22 45 20 5 -2 6 4 3 11 -3
8 1 25 10 37 14 19 13 22 -2 34 -15 11 -16 16 -5 36 11 21 10 26 -10 42 -16
13 -26 16 -34 8 -13 -13 -29 -13 -21 0 3 6 -1 10 -9 10 -9 0 -16 8 -16 18 -1
16 -1 16 -14 0 -16 -22 -26 -23 -26 -3 0 18 -12 19 -27 4 -8 -8 -13 -5 -18 10
-3 12 -12 19 -18 15 -7 -3 4 8 23 25 19 17 40 31 45 31 21 0 38 -19 41 -45 4
-34 23 -57 42 -50 8 3 30 -6 48 -20 29 -22 34 -32 34 -68 0 -50 -29 -117 -65
-153 -14 -14 -24 -28 -21 -31 3 -3 19 9 36 26 17 17 33 31 35 31 6 0 -20 -72
-38 -107 -10 -18 -36 -39 -71 -56 -58 -29 -130 -106 -142 -152 -20 -79 -209
-30 -313 80 -68 71 -104 146 -98 199 6 53 29 116 42 116 6 0 23 -14 38 -30 28
-30 72 -48 84 -36 4 3 -3 6 -15 6 -27 0 -92 62 -92 87 0 47 97 120 123 94 8
-8 6 -11 -7 -11 -28 0 -76 -55 -76 -86 0 -39 36 -74 76 -74 70 0 103 107 47
149 -29 21 -16 29 18 11 10 -6 19 -8 19 -4 0 12 -32 44 -45 44 -6 0 -20 7 -31
16 -10 8 -13 13 -6 9 7 -4 12 0 12 9 0 8 5 27 11 43 l12 28 9 -37 c6 -23 26
-52 54 -78z m-6 99 c0 -5 -9 -9 -20 -9 -11 0 -20 4 -20 8 0 4 9 8 20 9 11 1
20 -2 20 -8z m197 -20 c-14 -8 -22 -8 -30 0 -8 8 -3 11 19 11 25 -1 27 -2 11
-11z m-331 -37 c-11 -11 -16 -12 -16 -4 0 18 24 43 29 30 2 -5 -4 -17 -13 -26z
m144 28 c0 -5 -2 -10 -4 -10 -3 0 -8 5 -11 10 -3 6 -1 10 4 10 6 0 11 -4 11
-10z m314 -21 c-3 -5 -13 -9 -22 -8 -11 0 -12 2 -4 6 6 2 10 9 7 14 -4 5 1 6
9 3 9 -3 13 -10 10 -15z m-134 -51 c0 -16 -20 -7 -30 12 -10 19 -10 20 9 8 12
-7 21 -16 21 -20z m-340 12 c0 -5 -5 -10 -11 -10 -5 0 -7 5 -4 10 3 6 8 10 11
10 2 0 4 -4 4 -10z m205 -28 c-3 -3 -11 0 -18 7 -9 10 -8 11 6 5 10 -3 15 -9
12 -12z m-141 -37 c-8 -19 -39 -37 -48 -28 -8 9 24 43 40 43 8 0 11 -6 8 -15z
m526 -9 c0 -3 -4 -8 -10 -11 -5 -3 -10 -1 -10 4 0 6 5 11 10 11 6 0 10 -2 10
-4z m-475 -61 c-6 -36 -29 -55 -67 -55 -51 0 -80 81 -31 85 12 1 20 -2 17 -7
-3 -5 -1 -15 5 -22 6 -7 8 -22 5 -32 -5 -14 0 -11 19 9 21 22 25 32 17 51 -8
22 -7 23 16 12 21 -9 24 -16 19 -41z m-197 25 c7 -11 9 -20 4 -20 -4 0 -13 9
-20 20 -7 11 -9 20 -4 20 4 0 13 -9 20 -20z m152 -10 c0 -19 -11 -26 -23 -14
-8 8 3 34 14 34 5 0 9 -9 9 -20z m-186 -75 c-4 -8 -11 -15 -16 -15 -6 0 -5 6
2 15 7 8 14 15 16 15 2 0 1 -7 -2 -15z m876 -85 c-8 -20 -17 -27 -27 -23 -13
5 -14 3 -6 -12 8 -13 5 -26 -11 -51 -11 -18 -23 -33 -26 -33 -3 0 -12 15 -21
33 -14 31 -14 35 3 56 10 12 18 29 18 37 0 12 3 13 13 4 11 -8 20 -6 38 12 28
26 36 17 19 -23z m-815 -238 c-6 -7 -35 18 -35 31 0 5 9 2 20 -8 11 -10 18
-20 15 -23z m175 -67 c0 -8 -4 -15 -10 -15 -5 0 -10 7 -10 15 0 8 5 15 10 15
6 0 10 -7 10 -15z"/>
<path d="M855 950 c3 -5 -3 -10 -15 -10 -12 0 -19 -4 -16 -9 3 -5 16 -7 28 -3
14 3 19 2 14 -6 -4 -7 -1 -12 7 -12 7 0 19 11 25 25 11 24 10 25 -19 25 -18 0
-28 -4 -24 -10z"/>
<path d="M805 804 c9 -10 14 -25 12 -35 -3 -11 -1 -19 4 -19 5 0 9 7 9 16 0
21 -19 54 -31 54 -6 0 -3 -7 6 -16z"/>
<path d="M830 802 c0 -5 11 -19 25 -32 14 -13 25 -33 25 -44 0 -15 3 -17 11
-9 9 9 5 20 -15 43 -14 17 -26 36 -26 41 0 5 -4 9 -10 9 -5 0 -10 -4 -10 -8z"/>
<path d="M618 830 c17 -29 36 -30 46 -3 9 22 -1 32 -33 31 -28 -1 -28 -1 -13
-28z"/>
<path d="M632 617 c-29 -13 -64 -79 -55 -104 12 -35 36 -53 70 -53 88 0 117
129 36 158 -19 6 -36 6 -51 -1z m18 -28 c-12 -22 -37 -35 -47 -25 -9 8 27 46
44 46 11 0 11 -4 3 -21z m60 -9 c0 -5 -2 -10 -4 -10 -3 0 -8 5 -11 10 -3 6 -1
10 4 10 6 0 11 -4 11 -10z m5 -55 c-10 -52 -68 -73 -107 -38 -25 23 -24 63 3
63 11 0 18 -4 15 -9 -3 -5 1 -14 9 -21 7 -6 11 -18 8 -26 -3 -8 0 -14 6 -14 6
0 11 6 11 14 0 7 7 19 15 26 11 9 13 16 5 24 -21 21 -12 35 16 23 21 -10 24
-17 19 -42z m-50 5 c-5 -8 -11 -8 -17 -2 -6 6 -7 16 -3 22 5 8 11 8 17 2 6 -6
7 -16 3 -22z"/>
<path d="M237 444 c-10 -13 -14 -24 -10 -24 9 0 36 40 31 45 -2 2 -11 -8 -21
-21z"/>
<path d="M293 448 c-15 -20 -25 -38 -20 -38 3 0 12 11 21 25 17 26 16 35 -1
13z"/>
<path d="M401 394 c-41 -52 -18 -177 41 -218 12 -9 37 -16 55 -16 27 0 37 6
53 33 36 59 23 137 -33 195 -40 42 -86 44 -116 6z m100 -4 l24 -19 -35 -1
c-56 0 -83 10 -69 26 16 20 53 17 80 -6z m39 -58 c18 -40 13 -119 -10 -142
-11 -11 -26 -20 -32 -20 -40 1 -99 65 -97 105 1 13 4 10 10 -11 5 -16 21 -41
35 -55 l27 -24 -23 32 c-25 35 -34 99 -18 123 6 8 -1 2 -16 -13 -28 -30 -35
-25 -11 10 12 17 24 20 69 19 47 -1 57 -4 66 -24z"/>
<path d="M600 400 c-6 -11 -8 -20 -6 -20 3 0 10 9 16 20 6 11 8 20 6 20 -3 0
-10 -9 -16 -20z"/>
<path d="M661 393 c-10 -26 -10 -27 4 -9 8 11 15 23 15 28 0 15 -7 8 -19 -19z"/>
<path d="M800 240 c-6 -12 -9 -24 -7 -27 3 -2 11 5 17 17 6 12 9 24 7 27 -3 2
-11 -5 -17 -17z"/>
<path d="M480 30 c8 -5 20 -10 25 -10 6 0 3 5 -5 10 -8 5 -19 10 -25 10 -5 0
-3 -5 5 -10z"/>
</g>
</svg>
