<?xml version="1.0" encoding="utf-8"?>
<!-- Generator: Adobe Illustrator 16.0.0, SVG Export Plug-In . SVG Version: 6.00 Build 0)  -->
<!DOCTYPE svg PUBLIC "-//W3C//DTD SVG 1.1//EN" "http://www.w3.org/Graphics/SVG/1.1/DTD/svg11.dtd">
<svg version="1.1" xmlns="http://www.w3.org/2000/svg" xmlns:xlink="http://www.w3.org/1999/xlink" x="0px" y="0px" width="1392px"
	 height="764px" viewBox="0 0 1392 764" enable-background="new 0 0 1392 764" xml:space="preserve">
<g id="outlined" display="none">
	<path display="inline" fill="#FFFFFF" d="M848.175,735.731c-2.817,0-5.655-0.197-8.438-0.584
		c-45.688-6.281-83.173-24.619-108.356-53.025c-22.243-25.09-33.74-57.544-31.581-89.104c-0.355-5.29-0.346-10.588,0.031-15.78
		c0.033-0.462,0.069-0.926,0.108-1.388c-2.244-0.016-4.52-0.141-6.769-0.372l-49.807-5.024
		c-18.775-1.894-34.186-9.756-44.563-22.738c-1.129-1.411-2.186-2.869-3.172-4.372c-8.615,6.622-18.104,12.164-28.359,16.552
		c-15.887,6.794-33.024,10.238-50.939,10.238c-17.952,0-35.082-3.46-50.912-10.283c-15.486-6.669-29.292-16.01-41.028-27.757
		c-0.668-0.668-1.329-1.342-1.981-2.024c-4.951,14.432-13.591,25.646-25.707,33.354c-10.668,6.804-22.005,10.421-33.676,10.737
		c-0.068,0.002-1.647,0.028-1.774,0.028c-12.926,0-24.9-3.511-35.59-10.437c-3.525-2.279-6.769-4.854-9.725-7.72
		c-3.508,3.769-7.486,7.086-11.89,9.891c-10.68,6.813-22.018,10.429-33.688,10.748c-0.087,0.002-1.832,0.028-1.871,0.028
		c-12.596,0-24.409-3.371-35.11-10.021c-9.578-5.962-17.17-14.233-22.334-24.243c-2.856,3.045-5.933,5.873-9.225,8.478
		c-17.973,14.408-38.416,22.818-60.762,24.998c-4.085,0.395-8.172,0.593-12.168,0.593c-6.718,0-13.375-0.557-19.787-1.654
		c-10.841-1.862-20.437-4.936-28.532-9.134l0.001-0.001c-5.796-2.953-47.586-25.465-50.869-61.65
		c-0.442-4.873-0.383-9.736,0.174-14.507c-0.068-0.537-0.126-1.065-0.174-1.59c-1.028-11.338,0.648-22.362,4.783-32.188
		c-5.317-10.396-8.637-22.131-9.892-35.026c-0.558-5.749-0.591-11.518-0.099-17.188c-2.083-24.321,5.239-47.395,21.209-66.808
		c11.062-13.442,25.17-23.101,42.074-28.83c4.261-21.973,12.793-52.542,25.9-92.844l0.7-3.274c0.509-2.385,1.385-4.647,2.574-6.702
		c6.106-18.457,12.078-35.686,16.7-48.917c2.262-6.544,4.354-12.538,6.159-17.7c0.042-0.756,0.028-2.098-0.351-3.854
		c-3.318-15.43,2.626-43.813,10.173-62.08c5.248-18.083,12.121-30.794,20.435-37.79c13.485-11.34,27.734-12.832,33.099-13.394
		c0.044-0.005,0.255-0.026,0.255-0.026c2.134-0.321,4.366-0.489,6.582-0.489c3.723,0,7.504,0.474,11.289,1.414
		c4.193-1.135,9.187-2.052,14.667-2.052c5.316,0,10.498,0.864,15.401,2.569c0.403,0.141,0.8,0.286,1.191,0.434
		c0.462-0.011,0.923-0.017,1.38-0.017c3.291,0,6.529,0.284,9.625,0.843c2.259,0.408,4.512,1.001,6.695,1.762
		c11.86,4.124,22.049,13.541,27.749,25.151c3.786,2.803,7.045,6.121,9.741,9.922c10.775,15.151,8.588,31.079,6.831,43.877
		c-0.847,6.186-2.688,11.971-5.486,17.259c-3.067,16.39-13.029,29.043-29.646,37.627l-0.175,0.09
		c-1.953,1.273-1.981,1.305-4.046,3.575c-1.713,1.881-3.406,3.505-4.965,4.903c-0.799,14.256-0.898,37.914,2.941,70.939
		c1.215,10.445,1.986,20.176,2.308,29.117c2.269,0.527,4.518,1.159,6.691,1.913c0.056,0.02,0.112,0.04,0.167,0.059
		c3.464-3.243,7.94-5.292,12.762-5.742c0.67-0.063,1.341-0.093,2.008-0.093c5.897,0,11.574,2.415,15.673,6.735l20.552,21.664
		c3.257-1.899,7.003-2.945,10.876-2.945c1.578,0,3.176,0.173,4.771,0.534c6.655,1.503,11.964,5.966,14.737,11.764
		c3.109,0.499,6.521,1.076,10.26,1.751c7.251-3.126,15.072-4.817,23.351-5.041c0.097-0.003,1.588-0.023,1.687-0.023
		c5.713,0,11.363,0.749,16.854,2.231c3.591-54.748,19.249-97.161,36.037-110.688c6.293-5.072,14.234-7.752,22.963-7.752
		c31.737,0,72.962,35.134,116.955,99.366c10.373-3.501,21.522-6.945,33.322-10.288c23.695-6.713,49.002-10.117,75.219-10.117
		c41.512,0,83.991,8.578,121.382,24.348c55.179-60.985,103.83-94.369,137.885-94.369c15.185,0,24.199,6.544,29.089,12.034
		c12.497,14.027,19.659,48.807,18.981,88.693c11.732,2.473,22.12,7.933,30.555,16.145c1.279,1.249,2.498,2.539,3.655,3.867
		c8.688-8.322,20.204-13.692,34.312-15.99c4.152-0.675,8.228-1.018,12.117-1.018c10.776,0,20.615,2.537,29.244,7.539
		c7.221,4.193,13.505,9.727,18.761,16.508c0.38-0.421,0.765-0.839,1.157-1.254c11.681-12.333,27.987-19.124,45.918-19.124
		c0.943,0,1.896,0.017,2.865,0.057l82.046,3.034c18.923,0.696,35.622,8.618,47.02,22.306c10.497,12.629,15.718,28.043,15.108,44.591
		c-0.068,1.845-0.21,3.684-0.42,5.5c0.41,3.484,0.551,7.037,0.42,10.605c-0.617,16.578-6.965,31.57-18.356,43.361
		c-0.515,0.532-1.035,1.053-1.564,1.563c11.855,13.594,21.523,29.149,28.175,45.582c8.902,21.979,12.993,45.844,11.855,69.098
		c2.888,59.821-27,111.624-82.146,142.255c-26.168,14.542-53.695,21.613-84.152,21.613c-61.472-0.004-119.593-29.392-175.801-57.812
		c-52.667-26.63-107.121-54.161-157.759-54.567l-0.834-0.005c-1.13,0.001-2.22,0.022-3.271,0.062
		c2.97,0.678,6.259,1.283,9.891,1.782c16.256,2.229,30.681,10.666,40.61,23.755c9.776,12.894,14.031,28.764,12.02,44.773
		c0.672,5.333,0.64,10.726-0.099,16.086C904.894,712.897,878.722,735.731,848.175,735.731z"/>
</g>
<g id="Layer_1">
	<path fill="#212020" d="M595.071,326.913c-63.683-104.91-113.467-132.68-129.582-119.694
		c-16.118,12.987-51.184,109.549-8.09,241.686C457.398,448.904,588.193,378.264,595.071,326.913z"/>
	<path fill="#6D5D50" d="M466.696,224.785c-27.847,65.175-14.116,153.494-2.013,206.935c2.564,11.302,2.78-28.691,15.599-31.387
		c12.823-2.696,12.823-2.696,12.823-2.696s-7.417,11.427-6.655,19.814c0.761,8.387,17.81,1.465,17.81,1.465
		s27.251-38.595,27.326-46.287c0.066-7.694-16.36,6.092-16.36,6.092s8.524-24.6,27.308-29.375l-18.643-2.153l12.9-10.391
		l-13.578-14.144l26.685-2.415c0,0-33.675-15.398-48.164-14.086c0,0,29.59-12.673,48.095-3.591c0,0-35.422-70.342-58.258-83.107
		C476.194,210.857,471.132,214.392,466.696,224.785z"/>
	<path fill="#212020" d="M314.553,487.925c-13.38-4.655-23.381-12.158-32.202-18.777c-3.822-2.868-7.417-5.571-10.896-7.729
		c-4.323-2.681-8.105-4.52-12.26-5.964c-3.685-1.282-7.665-2.249-12.272-3.373c-6.643-1.617-14.856-3.614-25.516-7.322
		c-6.659-2.316-13.461-5.007-20.793-8.221c-36.719-16.102-63.23-33.199-78.785-50.816l-0.967-1.091
		c-16.174-18.218-15.411-27.914-8.654-76.341c5.931-42.422,36.022-128.423,48.865-165.143c2.064-5.892,4.313-12.329,4.867-14.083
		c0.417-2.019,1.088-6.94-0.32-13.467c-2.794-12.981,6.652-54.445,18.361-64.296c8.402-7.066,17.205-7.995,21.438-8.438
		c0,0,0.734-0.072,0.901-0.099c4.026-0.657,8.105-0.234,12.47,1.285c0.872,0.302,1.698,0.635,2.465,0.958
		c0.191-0.072,0.396-0.147,0.599-0.225c6.084-2.252,14.126-4.466,22.414-1.584c0.428,0.149,0.854,0.312,1.273,0.482
		c1.144,0.477,2.171,0.997,3.067,1.498c3.972-0.527,7.698-0.482,11.113,0.134c1.144,0.207,2.298,0.509,3.424,0.902
		c8.278,2.878,15.123,10.69,17.369,19.374c2.936,1.377,6.665,3.646,9.609,7.797c5.826,8.192,4.541,17.576,3.049,28.44
		c-2.142,15.638-13.682,21.602-18.606,24.145l-0.443,0.228c-0.27,0.138-0.534,0.254-0.764,0.404l-0.722,0.47
		c-3.022,1.97-4.4,2.869-8.357,7.219c-2.252,2.474-4.583,4.406-6.634,6.107c-4.733,3.933-6.892,5.729-7.785,12.934
		c-1.297,10.525-3.714,40.208,1.878,88.319c2.447,21.039,2.621,35.838,2.091,45.69c8.288,0.248,15.935,1.399,21.279,3.255
		l0.853,0.312c16.672,6.316,27.646,13.481,36.461,19.235c5.293,3.457,9.468,6.18,12.937,7.404c5.286,1.839,9.51,2.393,17.924,3.505
		c7.835,1.033,18.538,2.438,34.769,5.604c3.625,0.704,7.176,1.656,10.55,2.831c39.043,13.578,49.554,52.103,46.693,80.972
		c-3.328,33.547-31.052,71.863-77.614,80.192C342.005,493.459,327.903,492.564,314.553,487.925z"/>
	<path fill="#212020" d="M309.518,502.41c-13.383-4.655-23.381-12.159-32.205-18.779c-3.819-2.866-7.417-5.57-10.897-7.727
		c-4.319-2.681-8.102-4.521-12.256-5.965c-3.688-1.281-7.668-2.248-12.275-3.372c-6.644-1.617-14.857-3.618-25.514-7.322
		c-6.661-2.317-13.464-5.007-20.793-8.221c-36.722-16.102-63.23-33.199-78.788-50.817l-0.964-1.09
		c-16.175-18.218-15.414-27.914-8.653-76.341c5.928-42.425,36.018-128.423,48.865-165.142c2.06-5.892,4.313-12.329,4.864-14.083
		c0.417-2.019,1.087-6.94-0.321-13.467c-2.792-12.981,6.656-54.445,18.361-64.296c8.401-7.066,17.205-7.995,21.437-8.438
		c0,0,0.734-0.072,0.902-0.099c4.029-0.656,8.105-0.233,12.472,1.286c0.869,0.302,1.695,0.635,2.462,0.958
		c0.191-0.072,0.395-0.149,0.599-0.225c6.083-2.252,14.128-4.466,22.414-1.584c0.431,0.149,0.854,0.308,1.273,0.482
		c1.145,0.476,2.172,0.997,3.067,1.498c3.972-0.527,7.701-0.482,11.112,0.135c1.144,0.207,2.3,0.509,3.423,0.902
		c8.282,2.878,15.124,10.69,17.37,19.374c2.936,1.377,6.667,3.645,9.609,7.796c5.829,8.192,4.542,17.576,3.049,28.44
		c-2.142,15.639-13.679,21.599-18.606,24.145l-0.443,0.228c-0.27,0.139-0.533,0.255-0.761,0.405l-0.725,0.47
		c-3.023,1.971-4.4,2.87-8.357,7.219c-2.253,2.475-4.583,4.406-6.632,6.108c-4.732,3.933-6.895,5.729-7.787,12.934
		c-1.294,10.525-3.714,40.208,1.881,88.319c2.447,21.039,2.618,35.839,2.087,45.687c8.288,0.251,15.938,1.402,21.279,3.259
		l0.857,0.312c16.668,6.317,27.644,13.482,36.461,19.236c5.29,3.457,9.465,6.18,12.934,7.404c5.29,1.839,9.513,2.393,17.923,3.505
		c7.836,1.033,18.538,2.438,34.77,5.604c3.624,0.704,7.176,1.656,10.552,2.83c39.041,13.578,49.554,52.103,46.69,80.972
		c-3.325,33.544-31.049,71.863-77.613,80.192C336.97,507.944,322.865,507.049,309.518,502.41z"/>
	<path fill="#212020" d="M876.437,346.184c-47.542-47.542-153.359-79.747-245.374-53.676
		c-92.016,26.071-107.171,47.784-107.171,47.784l33.559,50.366c0,0,151.824,87.414,162.56,85.88
		c10.735-1.533,93.549,3.067,93.549,3.067"/>
	<path fill="#9C8F7F" d="M605.758,363.82c-4.601-23.004,38.339-57.51,38.339-57.51s-15.336,16.103-10.735,54.443
		c4.601,38.339,13.802,57.509,9.202,67.477c-4.601,9.968,37.573,23.004,42.174,30.672c4.601,7.668,31.439,20.703,31.439,20.703
		s-3.835-30.671,5.366-75.145c9.202-44.475,26.071-67.479,26.839-80.514c0.767-13.036,0-16.87,0-16.87s23.004,50.608,13.803,101.984
		c-9.202,51.375-4.602,58.275-6.135,63.644c-1.533,5.367-3.835,10.735-3.835,10.735"/>
	<g>
		<path fill="#FFFFFF" d="M588.811,351.797c-9.189-9.277-20.11-16.657-32.46-21.941c-12.433-5.308-25.894-8-40.02-8
			c-14.138,0-27.575,2.695-39.93,8.015c-12.235,5.272-23.132,12.637-32.385,21.887c-3.193,3.193-6.144,6.596-8.881,10.169
			c0-0.078,0.002-0.162,0-0.239c-0.144-5.386-1.312-10.406-3.469-14.923c-2.174-4.546-5.119-8.405-8.758-11.466
			c-3.421-2.878-7.315-5.104-11.604-6.617c-3.959-1.387-8.058-2.091-12.185-2.091l-1.012,0.012
			c-7.584,0.207-14.341,2.501-20.098,6.829c-6.039,4.553-10.119,11.298-12.137,20.134l-8.839,39.927l-11.19-38.459
			c-2.495-8.73-7.353-15.458-14.428-19.99c-6.302-4.038-12.963-6.087-19.805-6.087l-0.922,0.015
			c-8.632,0.237-15.995,2.833-21.884,7.709c-5.871,4.853-9.842,11.655-11.771,20.099l-10.043,42.053l-13.194-42.877
			c-2.738-8.689-7.513-15.15-14.18-19.206c-5.802-3.531-12.203-5.319-19.026-5.319l-1.055,0.012
			c-4.612,0.123-9.105,1.051-13.365,2.764c-4.373,1.765-8.282,4.311-11.616,7.569c-3.391,3.31-6.063,7.309-7.943,11.879
			c-0.429,1.033-0.785,2.1-1.112,3.178c-2.555-5.275-6.179-10.01-10.744-13.437c-0.299-0.225-0.605-0.434-0.922-0.629l-5.772-3.562
			c-4.885-3.277-11.738-5.766-21.532-7.827c-6.009-1.255-12.419-1.893-19.056-1.893c-3.529,0-7.171,0.18-10.832,0.536
			c-21.253,2.063-37.911,10.259-49.513,24.361c-11.599,14.099-16.619,30.105-14.922,47.581c1.198,12.304,4.861,22.937,10.889,31.604
			c4.367,6.28,9.425,11.328,15.101,15.077c-12.71,5.308-22.566,18.044-20.865,36.81c1.741,19.193,28.49,35.862,36.015,39.532
			c5.555,2.881,12.429,5.04,20.439,6.415c4.882,0.837,9.962,1.259,15.107,1.259c3.116,0,6.296-0.156,9.472-0.462
			c16.92-1.65,32.493-8.103,46.214-19.119c8.036-6.347,14.249-14.808,18.463-25.146c4.148-10.175,5.64-21.578,4.445-33.886
			c-1.213-12.505-4.909-23.181-10.978-31.729c-6.341-8.935-14.116-15.104-23.111-18.345c-0.749-0.271-1.5-0.531-2.262-0.788
			c6.503-3.266,11.777-8.24,15.226-14.552c0.812-1.468,1.44-3.042,1.95-4.675l45.118,124.274c2.75,8.145,7.656,14.457,14.593,18.777
			c6.236,3.876,13.125,5.844,20.47,5.844l1.114-0.019c6.575-0.18,13.149-2.34,19.542-6.413c7.003-4.463,11.939-11.143,14.656-19.831
			l10.091-32.041l12.376,31.627c3.103,7.863,7.979,13.985,14.479,18.188c6.122,3.966,12.988,5.979,20.41,5.979l1.117-0.019
			c6.575-0.18,13.153-2.34,19.539-6.413c7.003-4.457,11.936-11.136,14.749-20.14l18.585-64.933
			c1.228,8.771,3.552,17.193,6.982,25.155c5.271,12.242,12.634,23.138,21.884,32.385c9.237,9.246,20.134,16.612,32.385,21.889
			c12.34,5.321,25.777,8.02,39.933,8.02c14.138,0,27.605-2.693,40.029-8.004c12.356-5.287,23.277-12.67,32.457-21.946
			c9.13-9.223,16.468-20.081,21.806-32.266c5.424-12.364,8.174-25.825,8.174-40.002s-2.75-27.635-8.174-40.002
			C605.285,371.887,597.946,361.031,588.811,351.797z M130.909,464.611c-0.042,0-1.087-0.012-3.367-1.087
			c-0.036-0.018-0.071-0.035-0.107-0.051c0.5,0.048,0.994,0.093,1.485,0.134c1.624,0.138,3.146,0.354,4.556,0.647
			C132.758,464.39,131.91,464.517,130.909,464.611z M543.187,435.784c-1.552,3.521-3.591,6.489-6.249,9.085
			c-2.672,2.612-5.69,4.613-9.237,6.117c-3.427,1.452-7.063,2.159-11.118,2.159c-4.063,0-7.698-0.707-11.125-2.163
			c-3.498-1.479-6.446-3.446-9.019-6.025c-2.615-2.611-4.646-5.61-6.215-9.178c-1.492-3.373-2.214-6.959-2.214-10.957
			c0-4.022,0.734-7.671,2.25-11.16c1.561-3.61,3.582-6.626,6.188-9.226c2.612-2.618,5.613-4.648,9.166-6.216
			c3.39-1.494,6.979-2.219,10.969-2.219c3.983,0,7.572,0.725,10.956,2.217c3.606,1.587,6.68,3.653,9.405,6.316
			c2.63,2.573,4.664,5.559,6.212,9.127c1.509,3.495,2.246,7.146,2.246,11.16C545.403,428.815,544.678,432.4,543.187,435.784z"/>
		<path fill="#FFFFFF" d="M890.586,527.846l-0.587,0.431c-2.54,1.86-3.942,2.888-8.962,4.883c-2.414,0.958-4.541,2.168-6.417,3.235
			c-3.432,1.952-5.908,3.365-9.728,3.365c-1.576,0-3.358-0.238-5.293-0.706c-5.544-1.343-17.25-4.601-34.252-11.505l70.159-3.792
			c-1.561,1.108-2.836,2.237-3.802,3.109C891.316,527.216,890.957,527.566,890.586,527.846z M920.275,460.157
			c-4.578-4.588-10.305-7.629-16.843-8.995c1.992-1.602,3.586-3.288,4.844-4.87c5.582-7.029,8.164-15.188,7.677-24.247
			c-0.488-9.055-3.936-16.887-10.253-23.288c-1.563-1.577-3.26-2.965-5.083-4.157c7.617-2.549,12.557-7.015,15.603-10.879
			c2.731-3.468,4.751-7.218,6.104-11.199l2.959,93.873C923.857,464.187,922.21,462.096,920.275,460.157z"/>
	</g>
	<path fill="#212020" d="M825.142,314.787c80.04-93.033,133.707-112.257,147.47-96.801c13.77,15.456,32.512,116.462-31.685,239.737
		C940.927,457.723,823.5,366.573,825.142,314.787z"/>
	<path fill="#6D5D50" d="M968.538,235.119c16.773,68.861-11.266,153.73-31.978,204.458c-4.382,10.726,1.965-28.755-10.235-33.522
		c-12.209-4.769-12.209-4.769-12.209-4.769s5.442,12.495,3.316,20.643c-2.127,8.147-17.811-1.479-17.811-1.479
		s-20.544-42.542-19.358-50.141c1.198-7.602,15.139,8.692,15.139,8.692s-4.373-25.664-22.114-33.458l18.738,0.935l-11.016-12.368
		l15.712-11.72l-25.927-6.764c0,0,35.749-9.663,49.823-5.99c0,0-27.11-17.358-46.854-11.433c0,0,46.489-63.581,71.108-72.42
		C961.454,219.822,965.866,224.138,968.538,235.119z"/>
	<g>
		<g>
			<path fill="#212020" d="M128.89,538.796c-5.496,0-10.927-0.453-16.141-1.345c-8.629-1.482-16.108-3.844-22.229-7.019
				c-0.233-0.11-36.966-18.708-39.299-44.423c-1.441-15.887,4.578-29.788,16.053-38.211c-3.337-3.118-6.419-6.703-9.217-10.729
				c-6.633-9.534-10.657-21.147-11.958-34.512c-1.86-19.155,3.621-36.671,16.292-52.073c12.673-15.402,30.725-24.34,53.657-26.568
				c3.864-0.371,7.709-0.563,11.424-0.563c7.057,0,13.889,0.68,20.308,2.022c10.609,2.231,18.14,5.008,23.699,8.74l5.574,3.433
				c0.476,0.297,0.938,0.607,1.381,0.938c16.052,12.053,22.261,36.872,13.299,53.115c-2.129,3.891-4.876,7.39-8.141,10.387
				c6.793,3.946,12.796,9.565,17.918,16.781c6.697,9.432,10.762,21.104,12.083,34.688c1.294,13.312-0.347,25.691-4.87,36.794
				c-4.618,11.331-11.466,20.632-20.343,27.644c-14.65,11.766-31.29,18.643-49.417,20.411
				C135.576,538.632,132.191,538.796,128.89,538.796z"/>
		</g>
		<g>
			<path fill="#212020" d="M268.489,538.99c-8.507,0-16.48-2.276-23.708-6.766c-8.18-5.092-13.956-12.502-17.166-22.03
				l-46.412-127.827c-0.468-1.142-0.977-2.414-1.435-3.606c-1.192-3.046-1.851-6.365-1.947-9.836
				c-0.17-6.266,0.881-12.191,3.116-17.606c2.204-5.346,5.343-10.034,9.33-13.928c3.909-3.819,8.485-6.806,13.604-8.87
				c4.945-1.989,10.16-3.067,15.5-3.208l1.129-0.018c8.051,0,15.524,2.091,22.3,6.215c7.979,4.852,13.644,12.458,16.845,22.6
				l6.596,21.44l4.822-20.194c2.234-9.771,6.89-17.667,13.833-23.403c6.967-5.766,15.587-8.833,25.616-9.114l1.019-0.012
				c8.111,0,15.887,2.372,23.192,7.051c8.372,5.367,14.099,13.263,17.016,23.471l4.487,15.414l3.654-16.522
				c2.354-10.298,7.207-18.26,14.434-23.705c6.796-5.113,14.747-7.823,23.625-8.063l1.102-0.015c4.903,0,9.681,0.818,14.29,2.435
				c4.994,1.765,9.541,4.358,13.53,7.716c4.308,3.625,7.788,8.171,10.34,13.512c2.528,5.295,3.9,11.152,4.068,17.403
				c0.054,1.974-0.009,4.023-0.189,6.251c-0.243,2.849-0.784,5.667-1.62,8.404l-36.998,129.286
				c-3.271,10.469-9.096,18.369-17.357,23.627c-7.336,4.678-14.961,7.158-22.663,7.368l-1.188,0.021
				c-8.723,0-16.708-2.342-23.842-6.964c-7.596-4.913-13.267-12.005-16.849-21.084l-6.047-15.446l-4.865,15.449
				c-3.157,10.103-8.95,17.899-17.21,23.162c-7.341,4.682-14.968,7.163-22.668,7.372C269.771,538.97,268.519,538.99,268.489,538.99z
				"/>
		</g>
		<g>
			<path fill="#212020" d="M516.331,532.425c-14.995,0-29.246-2.866-42.359-8.519c-12.97-5.587-24.508-13.389-34.296-23.187
				c-9.803-9.801-17.604-21.339-23.178-34.296c-5.652-13.107-8.519-27.355-8.519-42.351c0-14.988,2.87-29.243,8.519-42.359
				c5.578-12.952,13.377-24.49,23.181-34.296c9.804-9.8,21.341-17.6,34.293-23.177c13.131-5.655,27.383-8.519,42.359-8.519
				c14.958,0,29.234,2.857,42.432,8.494c13.081,5.596,24.657,13.419,34.41,23.265c9.663,9.767,17.426,21.251,23.07,34.125
				c5.766,13.149,8.689,27.438,8.689,42.467c0,15.034-2.923,29.321-8.689,42.468c-5.644,12.879-13.407,24.357-23.067,34.116
				c-9.737,9.839-21.312,17.669-34.404,23.271C545.583,529.568,531.301,532.425,516.331,532.425z M516.583,402.137
				c-3.122,0-5.898,0.556-8.496,1.701c-2.845,1.251-5.235,2.862-7.302,4.936c-2.049,2.043-3.648,4.439-4.897,7.324
				c-1.174,2.707-1.744,5.559-1.744,8.725c0,3.127,0.554,5.9,1.692,8.479c1.258,2.86,2.87,5.251,4.937,7.314
				c2.01,2.014,4.319,3.553,7.075,4.718c2.66,1.129,5.518,1.678,8.735,1.678c3.216,0,6.068-0.549,8.722-1.672
				c2.827-1.201,5.229-2.788,7.345-4.855c2.084-2.039,3.696-4.385,4.924-7.173c1.142-2.589,1.696-5.365,1.696-8.489
				c0-3.16-0.57-6.015-1.744-8.723c-1.222-2.821-2.815-5.169-4.871-7.176c-2.187-2.139-4.669-3.808-7.589-5.093
				C522.477,402.69,519.698,402.137,516.583,402.137z"/>
		</g>
		<g>
			<path fill="#212020" d="M700.412,538.144c-1.654,0-3.347-0.087-5.028-0.262l-49.852-5.029
				c-13.044-1.314-23.09-6.269-29.854-14.73c-6.676-8.345-9.393-19.203-8.072-32.271l12.904-127.878
				c1.645-16.33,9.888-25.394,16.516-30.121c7.533-5.373,16.028-8.099,25.247-8.099c1.558,0,3.154,0.078,4.738,0.24
				c10.958,1.108,20.321,5.679,27.821,13.583c5.661,5.973,12.062,16.531,10.408,32.939l-8.617,85.396l7.368,0.743
				c16.394,1.652,25.257,10.105,29.807,16.905c5.85,8.76,8.255,18.768,7.147,29.749c-1.104,10.924-5.422,20.251-12.845,27.725
				C720.891,534.3,711.314,538.144,700.412,538.144z"/>
		</g>
		<g>
			<path fill="#212020" d="M761.95,534.377c-24.151,0-39.992-15.592-41.35-40.695l-6.872-127.094
				c-0.709-13.107,2.508-23.825,9.565-31.852c7.152-8.141,17.417-12.622,30.509-13.332l82.559-4.463
				c0.971-0.05,1.93-0.081,2.868-0.081c11.717,0,21.935,4.097,29.542,11.853c7.727,7.886,11.948,17.582,12.556,28.817
				c0.611,11.229-2.54,21.32-9.363,29.983c-2.65,3.365-5.838,6.254-9.436,8.571c6.422,7.183,9.944,15.792,10.476,25.628
				c0.533,9.897-2.07,18.877-7.74,26.73c3.801,1.866,7.239,4.334,10.279,7.383c7.792,7.807,12.047,17.495,12.655,28.8
				c0.611,11.238-2.539,21.329-9.369,29.985c-5.073,6.449-14.568,14.327-30.963,15.211l-82.555,4.463
				C764.173,534.348,763.047,534.377,761.95,534.377z"/>
		</g>
		<g>
			<path fill="#212020" d="M913.215,529.905c-10.556,0-19.942-3.265-27.903-9.697c-6.332-5.103-14.004-14.743-14.542-31.661
				l-4.089-129.723c-0.527-16.402,6.454-26.472,12.403-32.031c7.964-7.444,17.705-11.397,28.945-11.751
				c0.516-0.015,1.017-0.024,1.514-0.024c10.411,0,19.78,3.304,27.853,9.821c4.395,3.559,9.418,9.214,12.303,17.739l7.861-11.91
				c3.789-6.044,8.169-10.483,13.315-13.437c5.173-2.968,11.726-4.541,20.035-4.804c0.629-0.018,1.248-0.03,1.857-0.03
				c12.337,0,22.58,3.882,30.443,11.538c7.962,7.77,12.365,18.067,12.735,29.797c0.15,4.678-0.406,9.324-1.652,13.808
				c-1.519,5.437-4.212,10.295-8.01,14.45l-29.183,35.126l32.928,39.525c6.658,7.877,10.198,16.737,10.498,26.296
				c0.397,12.544-3.67,23.494-11.772,31.665c-7.937,8-18.217,12.257-30.554,12.65c-0.494,0.014-0.959,0.021-1.414,0.021
				c-5.854,0-11.515-1.148-16.83-3.405c-6.321-2.672-11.766-7.024-16.173-12.929l-8.971-11.734
				c-2.301,9.23-7.129,15.397-11.434,19.28c-8.009,7.209-17.618,11.043-28.563,11.396
				C914.267,529.9,913.739,529.905,913.215,529.905z"/>
		</g>
		<g>
			<path fill="#212020" d="M1049.633,539.686c-2.763,0-5.551-0.249-8.285-0.737c-5.254-0.934-10.244-2.722-14.83-5.307
				c-4.998-2.837-9.276-6.575-12.727-11.122c-3.777-5.008-6.215-10.801-7.255-17.226c-1.152-7.138-0.914-13.114,0.739-18.27
				l37.727-138.097c2.013-7.254,5.299-13.565,9.771-18.774c5.592-6.509,13.988-10.711,24.951-12.497
				c3-0.488,5.909-0.736,8.644-0.736c6.922,0,13.116,1.557,18.406,4.624c6.303,3.66,11.595,8.95,15.737,15.723L1196.866,457
				c2.893,4.188,4.915,9.64,6.015,16.421c1.018,6.292,0.521,12.473-1.48,18.363c-1.806,5.326-4.573,10.146-8.223,14.321
				c-3.435,3.936-7.596,7.294-12.355,9.971c-4.804,2.715-9.914,4.526-15.179,5.38c-2.543,0.414-5.068,0.623-7.504,0.623
				c-15.114,0-27.698-7.865-35.432-22.147l-3.608-6.448l-26.452,4.301c-0.832,3.69-1.938,8.584-1.956,8.66
				c-2.346,9.099-6.538,16.521-12.47,22.096c-6.095,5.724-13.13,9.261-20.915,10.522
				C1054.766,539.476,1052.182,539.686,1049.633,539.686z"/>
		</g>
		<g>
			<path fill="#212020" d="M1220.43,536.227c-0.617,0-1.237-0.009-1.863-0.033c-10.998-0.408-20.586-4.325-28.491-11.646
				c-5.979-5.537-12.973-15.686-12.35-32.601l3.164-85.535c-15.57-0.966-24.808-8.427-29.852-14.614
				c-6.971-8.549-10.292-18.583-9.872-29.83c0.413-11.236,4.469-20.995,12.052-29.004c7.668-8.096,18.122-12.374,30.229-12.374
				c0.656,0,1.317,0.012,1.992,0.039l82.121,3.037c16.288,0.599,25.967,8.237,31.213,14.539
				c7.133,8.582,10.538,18.664,10.121,29.971c-0.422,11.325-4.561,21.131-12.304,29.147c-7.728,8.007-18.185,12.235-30.237,12.235
				c-0.036,0-0.071,0-0.108,0l-3.166,85.55c-0.628,16.994-8.494,26.616-14.979,31.692
				C1240.114,533.054,1230.805,536.227,1220.43,536.227z"/>
		</g>
	</g>
	<path fill="#FFFFFF" d="M316.569,482.128c-12.485-4.34-22.082-11.541-30.546-17.897c-3.923-2.947-7.632-5.729-11.34-8.024
		c-4.714-2.926-8.872-4.944-13.473-6.544c-3.978-1.384-8.102-2.388-12.879-3.553c-6.476-1.575-14.533-3.534-24.909-7.144
		c0,0-0.003,0-0.006-0.003c-6.5-2.258-13.152-4.891-20.337-8.042c-35.908-15.743-61.697-32.319-76.652-49.261l-0.979-1.1
		c-13.979-15.749-13.94-22.863-7.162-71.422c5.844-41.823,35.794-127.419,48.581-163.971c2.345-6.701,4.565-13.039,5.02-14.56
		c0.524-2.408,1.432-8.414-0.27-16.297c-2.354-10.948,6.599-50.142,16.313-58.313c6.964-5.858,14.228-6.625,18.13-7.036
		c0.453-0.048,0.872-0.083,1.243-0.144c2.992-0.485,6.092-0.15,9.471,1.027c1.608,0.557,3.082,1.237,4.358,1.86
		c0.812-0.365,1.755-0.764,2.848-1.171c5.44-2.01,11.868-3.769,18.271-1.543c0.318,0.111,0.632,0.228,0.94,0.356
		c1.633,0.68,3.001,1.498,4.208,2.229c3.046-0.56,7.174-0.956,11.229-0.224c0.833,0.149,1.666,0.365,2.498,0.656
		c7.255,2.522,13.203,10.325,13.952,17.944c0.15,0.06,0.305,0.123,0.446,0.18c2.489,0.995,6.652,2.66,9.594,6.803
		c4.421,6.218,3.343,14.092,1.971,24.064c-1.708,12.481-10.921,17.238-15.345,19.523c-0.62,0.32-1.225,0.608-1.746,0.949
		l-0.719,0.467c-3.258,2.124-5.056,3.294-9.54,8.225c-1.956,2.148-4.017,3.861-6.014,5.517c-5.09,4.227-8.765,7.279-9.954,16.899
		c-1.327,10.744-3.798,41.008,1.875,89.778c2.978,25.637,2.552,41.743,1.546,51.108c10.274-0.299,20.074,0.902,25.897,2.927
		l0.784,0.284c15.962,6.048,26.625,13.009,35.195,18.607c5.631,3.672,10.082,6.578,14.245,8.048c0.003,0,0.006,0.003,0.006,0.003
		c5.907,2.052,10.621,2.672,19.181,3.804c7.747,1.019,18.355,2.415,34.375,5.538c3.349,0.653,6.614,1.528,9.71,2.603
		c35.671,12.407,45.241,47.925,42.599,74.573c-3.094,31.25-29.021,66.966-72.587,74.76
		C341.987,487.229,328.892,486.414,316.569,482.128z"/>
	<g>
		<g>
			<path fill="#212020" d="M128.89,554.898c-5.496,0-10.927-0.452-16.141-1.345c-8.629-1.482-16.108-3.843-22.229-7.018
				c-0.233-0.111-36.966-18.71-39.299-44.424c-1.441-15.887,4.578-29.788,16.053-38.21c-3.337-3.118-6.419-6.704-9.217-10.729
				c-6.633-9.534-10.657-21.146-11.958-34.513c-1.86-19.154,3.621-36.67,16.292-52.072c12.673-15.402,30.725-24.339,53.657-26.568
				c3.864-0.372,7.709-0.563,11.424-0.563c7.057,0,13.889,0.68,20.308,2.021c10.609,2.231,18.14,5.008,23.699,8.74l5.574,3.433
				c0.476,0.296,0.938,0.608,1.381,0.938c16.052,12.053,22.261,36.872,13.299,53.115c-2.129,3.892-4.876,7.39-8.141,10.388
				c6.793,3.944,12.796,9.563,17.918,16.779c6.697,9.433,10.762,21.105,12.083,34.689c1.294,13.31-0.347,25.689-4.87,36.794
				c-4.618,11.331-11.466,20.631-20.343,27.644c-14.65,11.766-31.29,18.642-49.417,20.409
				C135.576,554.734,132.191,554.898,128.89,554.898z"/>
		</g>
		<g>
			<path fill="#212020" d="M268.489,555.094c-8.507,0-16.48-2.276-23.708-6.768c-8.18-5.092-13.956-12.502-17.166-22.029
				L181.204,398.47c-0.468-1.142-0.977-2.414-1.435-3.605c-1.192-3.047-1.851-6.366-1.947-9.837
				c-0.17-6.267,0.881-12.191,3.116-17.606c2.204-5.347,5.343-10.035,9.33-13.929c3.909-3.819,8.485-6.805,13.604-8.869
				c4.945-1.989,10.16-3.067,15.5-3.208l1.129-0.018c8.051,0,15.524,2.091,22.3,6.215c7.979,4.853,13.644,12.458,16.845,22.599
				l6.596,21.44l4.822-20.194c2.234-9.771,6.89-17.667,13.833-23.403c6.967-5.766,15.587-8.833,25.616-9.114l1.019-0.012
				c8.111,0,15.887,2.373,23.192,7.051c8.372,5.368,14.099,13.263,17.016,23.471l4.487,15.414l3.654-16.522
				c2.354-10.297,7.207-18.259,14.434-23.705c6.796-5.112,14.747-7.823,23.625-8.063l1.102-0.015c4.903,0,9.681,0.818,14.29,2.436
				c4.994,1.764,9.541,4.358,13.53,7.715c4.308,3.624,7.788,8.172,10.34,13.512c2.528,5.295,3.9,11.151,4.068,17.402
				c0.054,1.974-0.009,4.023-0.189,6.251c-0.243,2.848-0.784,5.666-1.62,8.405l-36.998,129.284
				c-3.271,10.469-9.096,18.371-17.357,23.627c-7.336,4.679-14.961,7.16-22.663,7.368l-1.188,0.021
				c-8.723,0-16.708-2.342-23.842-6.964c-7.596-4.912-13.267-12.005-16.849-21.084l-6.047-15.447l-4.865,15.45
				c-3.157,10.104-8.95,17.9-17.21,23.163c-7.341,4.682-14.968,7.161-22.668,7.371C269.771,555.072,268.519,555.094,268.489,555.094
				z"/>
		</g>
		<g>
			<path fill="#212020" d="M516.331,548.527c-14.995,0-29.246-2.866-42.359-8.519c-12.97-5.586-24.508-13.388-34.296-23.187
				c-9.803-9.801-17.604-21.338-23.178-34.296c-5.652-13.107-8.519-27.356-8.519-42.35c0-14.988,2.87-29.244,8.519-42.36
				c5.578-12.951,13.377-24.489,23.181-34.296c9.804-9.8,21.341-17.6,34.293-23.178c13.131-5.654,27.383-8.519,42.359-8.519
				c14.958,0,29.234,2.858,42.432,8.495c13.081,5.595,24.657,13.419,34.41,23.264c9.663,9.768,17.426,21.251,23.07,34.125
				c5.766,13.149,8.689,27.437,8.689,42.468c0,15.032-2.923,29.32-8.689,42.466c-5.644,12.881-13.407,24.357-23.067,34.117
				c-9.737,9.84-21.312,17.669-34.404,23.271C545.583,545.67,531.301,548.527,516.331,548.527z M516.583,418.238
				c-3.122,0-5.898,0.558-8.496,1.701c-2.845,1.253-5.235,2.864-7.302,4.937c-2.049,2.043-3.648,4.438-4.897,7.324
				c-1.174,2.707-1.744,5.559-1.744,8.725c0,3.127,0.554,5.901,1.692,8.479c1.258,2.861,2.87,5.251,4.937,7.315
				c2.01,2.012,4.319,3.552,7.075,4.717c2.66,1.13,5.518,1.677,8.735,1.677c3.216,0,6.068-0.547,8.722-1.671
				c2.827-1.2,5.229-2.788,7.345-4.855c2.084-2.04,3.696-4.385,4.924-7.174c1.142-2.587,1.696-5.364,1.696-8.488
				c0-3.16-0.57-6.015-1.744-8.722c-1.222-2.822,1.815-0.007-0.24-2.014c-2.187-2.139-9.3-8.971-12.22-10.255
				C522.477,418.793,519.698,418.238,516.583,418.238z"/>
		</g>
		<g>
			<path fill="#212020" d="M700.412,554.245c-1.654,0-3.347-0.087-5.028-0.26l-49.852-5.029c-13.044-1.314-23.09-6.269-29.854-14.73
				c-6.676-8.346-9.393-19.203-8.072-32.271l12.904-127.877c1.645-16.331,9.888-25.395,16.516-30.121
				c7.533-5.374,16.028-8.099,25.247-8.099c1.558,0,3.154,0.078,4.738,0.239c10.958,1.108,20.321,5.679,27.821,13.584
				c5.661,5.973,12.062,16.531,10.408,32.938l-8.617,85.396l7.368,0.742c16.394,1.654,25.257,10.105,29.807,16.905
				c5.85,8.762,8.255,18.769,7.147,29.749c-1.104,10.924-5.422,20.251-12.845,27.725
				C720.891,550.403,711.314,554.245,700.412,554.245z"/>
		</g>
		<g>
			<path fill="#212020" d="M761.95,550.48c-24.151,0-39.992-15.594-41.35-40.697l-6.872-127.093
				c-0.709-13.107,2.508-23.824,9.565-31.852c7.152-8.142,17.417-12.623,30.509-13.332l82.559-4.463
				c0.971-0.051,1.93-0.081,2.868-0.081c11.717,0,21.935,4.098,29.542,11.852c7.727,7.887,11.948,17.583,12.556,28.818
				c0.611,11.229-2.54,21.321-9.363,29.982c-2.65,3.367-5.838,6.255-9.436,8.573c6.422,7.183,9.944,15.791,10.476,25.627
				c0.533,9.896-2.07,18.876-7.74,26.73c3.801,1.866,7.239,4.333,10.279,7.383c7.792,7.806,12.047,17.496,12.655,28.8
				c0.611,11.238-2.539,21.33-9.369,29.986c-5.073,6.449-14.568,14.327-30.963,15.21l-82.555,4.463
				C764.173,550.451,763.047,550.48,761.95,550.48z"/>
		</g>
		<g>
			<path fill="#212020" d="M913.215,546.009c-10.556,0-19.942-3.265-27.903-9.699c-6.332-5.101-14.004-14.743-14.542-31.66
				l-4.089-129.722c-0.527-16.403,6.454-26.473,12.403-32.032c7.964-7.443,17.705-11.397,28.945-11.75
				c0.516-0.015,1.017-0.023,1.514-0.023c10.411,0,19.78,3.304,27.853,9.821c4.395,3.558,9.418,9.213,12.303,17.738l7.861-11.91
				c3.789-6.044,8.169-10.483,13.315-13.437c5.173-2.968,11.726-4.541,20.035-4.805c0.629-0.018,1.248-0.03,1.857-0.03
				c12.337,0,22.58,3.882,30.443,11.538c7.962,7.77,12.365,18.068,12.735,29.797c0.15,4.679-0.406,9.324-1.652,13.809
				c-1.519,5.436-4.212,10.294-8.01,14.448l-29.183,35.126l32.928,39.526c6.658,7.878,10.198,16.737,10.498,26.295
				c0.397,12.544-3.67,23.495-11.772,31.666c-7.937,8.001-18.217,12.258-30.554,12.649c-0.494,0.015-0.959,0.021-1.414,0.021
				c-5.854,0-11.515-1.147-16.83-3.406c-6.321-2.672-11.766-7.023-16.173-12.927l-8.971-11.736
				c-2.301,9.231-7.129,15.398-11.434,19.28c-8.009,7.21-17.618,11.044-28.563,11.397
				C914.267,546.002,913.739,546.009,913.215,546.009z"/>
		</g>
		<g>
			<path fill="#212020" d="M1049.633,555.788c-2.763,0-5.551-0.248-8.285-0.736c-5.254-0.936-10.244-2.724-14.83-5.309
				c-4.998-2.836-9.276-6.574-12.727-11.121c-3.777-5.008-6.215-10.801-7.255-17.226c-1.152-7.138-0.914-13.113,0.739-18.269
				l37.727-138.098c2.013-7.255,5.299-13.565,9.771-18.774c5.592-6.509,13.988-10.711,24.951-12.497
				c3-0.488,5.909-0.737,8.644-0.737c6.922,0,13.116,1.558,18.406,4.625c6.303,3.66,11.595,8.949,15.737,15.722l74.355,119.734
				c2.893,4.187,4.915,9.639,6.015,16.42c1.018,6.293,0.521,12.472-1.48,18.364c-1.806,5.326-4.573,10.145-8.223,14.32
				c-3.435,3.937-7.596,7.293-12.355,9.972c-4.804,2.713-9.914,4.525-15.179,5.379c-2.543,0.413-5.068,0.623-7.504,0.623
				c-15.114,0-27.698-7.865-35.432-22.147l-3.608-6.448l-26.452,4.302c-0.832,3.689-1.938,8.584-1.956,8.658
				c-2.346,9.101-6.538,16.522-12.47,22.097c-6.095,5.724-13.13,9.262-20.915,10.522
				C1054.766,555.578,1052.182,555.788,1049.633,555.788z"/>
		</g>
		<g>
			<path fill="#212020" d="M1220.43,552.328c-0.617,0-1.237-0.009-1.863-0.033c-10.998-0.406-20.586-4.324-28.491-11.646
				c-5.979-5.538-12.973-15.686-12.35-32.601l3.164-85.536c-15.57-0.965-24.808-8.425-29.852-14.614
				c-6.971-8.548-10.292-18.583-9.872-29.83c0.413-11.235,4.469-20.994,12.052-29.003c7.668-8.096,18.122-12.374,30.229-12.374
				c0.656,0,1.317,0.012,1.992,0.039l82.121,3.038c16.288,0.599,25.967,8.237,31.213,14.539
				c7.133,8.581,10.538,18.664,10.121,29.971c-0.422,11.325-4.561,21.132-12.304,29.147c-7.728,8.006-18.185,12.235-30.237,12.235
				c-0.036,0-0.071,0-0.108,0l-3.166,85.548c-0.628,16.995-8.494,26.616-14.979,31.693
				C1240.114,549.157,1230.805,552.328,1220.43,552.328z"/>
		</g>
	</g>
	<path fill="#212020" d="M848.175,698.789c19.805,0,36.776-14.81,39.476-34.449c1.453-10.545-1.294-21.029-7.73-29.519
		c-6.439-8.488-15.791-13.961-26.341-15.407c-37.543-5.164-53.616-21.687-52.66-34.854c0.913-12.592,18.047-25.337,49.039-25.337
		l0.952,0.006c55.695,0.446,112.445,29.138,167.328,56.887c53.949,27.278,109.736,55.487,166.059,55.49
		c26.686,0,50.78-6.179,73.661-18.894c72.862-40.473,83.017-114.055,60.756-169.021c-16.869-41.67-59.558-83.718-116.889-83.718
		c-10.357,0-20.867,1.411-31.234,4.192c-21.23,5.709-33.867,27.623-28.165,48.856c4.674,17.389,20.507,29.531,38.505,29.531
		c3.481,0,6.958-0.458,10.34-1.365c3.604-0.969,7.177-1.46,10.622-1.46c20.16,0,36.077,17.022,42.91,33.895
		c5.481,13.542,13.97,47.416-25.571,69.381c-10.777,5.984-22.429,8.896-35.62,8.896c-36.529,0-79.548-21.753-129.36-46.939
		c-60.157-30.415-128.321-64.879-202.714-65.478l-1.816-0.009c-83.239,0-124.872,51.486-128.342,99.324
		c-3.558,49.086,32.895,107.455,121.34,119.613C844.503,698.66,846.343,698.789,848.175,698.789z"/>
	<path fill="#212020" d="M848.175,714.125c19.805,0,36.776-14.81,39.476-34.449c1.453-10.545-1.294-21.029-7.73-29.519
		c-6.439-8.488-15.791-13.961-26.341-15.407c-37.543-5.164-53.616-21.687-52.66-34.854c0.913-12.592,18.047-25.337,49.039-25.337
		l0.952,0.006c55.695,0.446,112.445,29.138,167.328,56.887c53.949,27.278,109.736,55.487,166.059,55.49
		c26.686,0,50.78-6.179,73.661-18.894c72.862-40.473,83.017-114.055,60.756-169.021c-16.869-41.671-59.558-83.718-116.889-83.718
		c-10.357,0-20.867,1.41-31.234,4.192c-21.23,5.709-33.867,27.623-28.165,48.856c4.674,17.389,20.507,29.53,38.505,29.53
		c3.481,0,6.958-0.457,10.34-1.364c3.604-0.969,7.177-1.46,10.622-1.46c20.16,0,36.077,17.022,42.91,33.895
		c5.481,13.542,13.97,47.416-25.571,69.38c-10.777,5.985-22.429,8.896-35.62,8.896c-36.529,0-79.548-21.751-129.36-46.938
		c-60.157-30.415-128.321-64.879-202.714-65.478l-1.816-0.009c-83.239,0-124.872,51.486-128.342,99.324
		c-3.558,49.086,32.895,107.455,121.34,119.613C844.503,713.996,846.343,714.125,848.175,714.125z"/>
	<path fill="#FFFFFF" d="M848.175,692.655c16.757,0,31.115-12.533,33.398-29.15c1.229-8.927-1.097-17.795-6.542-24.978
		c-5.445-7.181-13.359-11.812-22.285-13.036c-41.685-5.732-59.139-24.911-57.947-41.374c1.086-14.943,18.806-31.028,55.159-31.028
		l0.991,0.006c57.139,0.459,114.545,29.48,170.058,57.546c53.318,26.961,108.433,54.828,163.29,54.832
		c25.616,0,48.733-5.928,70.68-18.121c69.59-38.654,79.301-108.895,58.053-161.356c-16.1-39.762-56.73-79.888-111.204-79.888
		c-9.821,0-19.796,1.342-29.642,3.984c-17.965,4.829-28.654,23.375-23.833,41.341c3.954,14.713,17.352,24.987,32.58,24.987
		c2.947,0,5.889-0.39,8.753-1.157c4.115-1.105,8.225-1.668,12.209-1.668c23.015,0,40.992,18.948,48.595,37.726
		c4.757,11.747,16.774,52.019-28.275,77.045c-11.711,6.505-24.34,9.668-38.601,9.668c-37.994,0-81.615-22.057-132.128-47.598
		c-59.546-30.105-127.033-64.231-199.995-64.817l-1.797-0.009c-79.298,0-118.926,48.535-122.192,93.632
		c-3.358,46.322,31.528,101.474,116.052,113.093C845.072,692.547,846.63,692.655,848.175,692.655z"/>
	<path fill="#9C8F7F" d="M848.175,680.387c10.563,0,19.764-7.794,21.243-18.55c1.618-11.745-6.596-22.579-18.343-24.193
		c-49.558-6.814-70.12-32.239-68.512-54.412c1.486-20.509,23.217-42.411,67.395-42.411c0.361,0,0.722,0.004,1.087,0.007
		c60.025,0.482,118.745,30.171,175.53,58.881c74.354,37.597,151.247,76.473,222.444,36.921
		c63.032-35.016,71.856-98.572,52.64-146.03c-18.616-45.975-67.964-84.327-126.294-68.657c-11.451,3.079-18.24,14.855-15.162,26.308
		c3.074,11.45,14.854,18.231,26.306,15.164c35.823-9.636,64.171,15.698,75.349,43.303c11.771,29.069,9.105,68.604-33.691,92.376
		c-51.284,28.487-111.963-2.185-182.217-37.706c-58.346-29.5-124.476-62.937-194.563-63.499
		c-72.54-0.687-108.751,42.221-111.652,82.241c-2.954,40.796,28.794,89.508,105.488,100.054
		C846.217,680.319,847.202,680.387,848.175,680.387z"/>
	<g>
		<defs>
			<path id="SVGID_1_" d="M848.175,680.387c10.563,0,19.764-7.794,21.243-18.55c1.618-11.745-6.596-22.579-18.343-24.193
				c-49.558-6.814-70.12-32.239-68.512-54.412c1.486-20.509,23.217-42.411,67.395-42.411c0.361,0,0.722,0.004,1.087,0.007
				c60.025,0.482,118.745,30.171,175.53,58.881c74.354,37.597,151.247,76.473,222.444,36.921
				c63.032-35.016,71.856-98.572,52.64-146.03c-18.616-45.975-67.964-84.327-126.294-68.657
				c-11.451,3.079-18.24,14.855-15.162,26.308c3.074,11.45,14.854,18.231,26.306,15.164c35.823-9.636,64.171,15.698,75.349,43.303
				c11.771,29.069,9.105,68.604-33.691,92.376c-51.284,28.487-111.963-2.185-182.217-37.706
				c-58.346-29.5-124.476-62.937-194.563-63.499c-72.54-0.687-108.751,42.221-111.652,82.241
				c-2.954,40.796,28.794,89.508,105.488,100.054C846.217,680.319,847.202,680.387,848.175,680.387z"/>
		</defs>
		<clipPath id="SVGID_2_">
			<use xlink:href="#SVGID_1_"  overflow="visible"/>
		</clipPath>
		<path clip-path="url(#SVGID_2_)" fill="#212020" d="M1315.893,464.914c0,0-20.703,12.269-34.506,18.403
			c-13.803,6.134-27.604,6.134-50.608,5.368c11.501,16.869,58.276,2.299,58.276,2.299s-5.368,4.602-14.569,12.27
			c-9.202,7.668-18.403,13.802-18.403,13.802l-3.067,11.503c0,0,6.901-6.135,28.372-18.403S1315.893,464.914,1315.893,464.914z
			 M1353.669,587.619l-5.733-14.551c-27.269,2.977-30.678,3.352-51.216,11.118c-20.539,7.758-52.14-1.187-52.14-1.187
			s31.769,16.013,46.008,16.87C1304.825,600.729,1330.639,591.52,1353.669,587.619z M1345.03,527.791l-10.735-13.035
			c-19.169,0.767-28.371-6.134-39.873,4.602c-11.502,10.734-23.004,13.802-23.004,13.802s12.269,3.067,26.071-3.067
			C1311.291,523.958,1345.03,527.791,1345.03,527.791z M811.291,646.566c1.146-5.296,8.052-11.57,17.389-23.98l-11.574-8.045
			c0,0-7.821,10.511-12.313,26.182c-4.502,15.668-0.2,26.583-0.2,26.583S810.145,651.864,811.291,646.566z M1091.527,541.42
			l-24.653-5.329c0,0-1.403,7.139-3.265,16.657c-1.871,9.52-1.871,9.521,2.395,30.618c4.266,21.098,13.246,30.764,13.246,30.764
			s2.21-18.84-2.594-32.139C1071.846,568.7,1079.795,558.391,1091.527,541.42z M1327.082,683.091l-1.191,3.561
			C1331.576,687.218,1327.082,683.091,1327.082,683.091z M1051.682,629.383c0.27-15.537,5.823-26.64-5.032-38.751
			c-10.864-12.108-19.511-26.858-19.511-26.858s5.094,20.778,11.31,35.743c6.212,14.968,3.941,35.58,3.343,38.082L1051.682,629.383z
			 M942.709,597.152c7.342-13.696,17.355-21.035,13.234-36.766c-4.128-15.738-5.081-32.808-5.081-32.808s-4.963,20.811-6.271,36.962
			c-1.318,16.149-12.754,33.447-14.431,35.401L942.709,597.152z M1283.304,547.345c-13.419,1.917-23.388,4.218-32.589,12.651
			L1243.813,583c0,0,9.586-16.869,29.905-23.771c20.32-6.901,30.289-18.02,30.289-18.02S1296.723,545.428,1283.304,547.345z
			 M784.747,705.914c15.696-0.134,35.183-15.102,50.366-35.883c15.18-20.781,4.357-32.357,4.357-32.357s-1.159,5.933-6.685,16.839
			c-5.536,10.903-16.576,22.321-30.409,32.077l-28.311,15.821C774.066,702.411,769.062,706.059,784.747,705.914z M755.448,655.069
			l13.972,9.358c0,0,5.254-10.386,14.561-26.314c9.301-15.929,7.578-8.048,18.649-25.229c0,0-12.688,8.351-20.773,14.764
			c-8.081,6.41-7.012,6.979-13.212,16.044C762.447,652.755,755.448,655.069,755.448,655.069z M662.956,651.716l32.673,19.232
			c16.117-11.04,32.567-28.429,51.623-47.76c19.057-19.337,49.979-36.381,49.979-36.381s-39.902,19.397-63.77,37.138
			c3.337-7.677,5.08-18.493,12.029-24.836c16.521-15.087,58.184-24.289,58.184-24.289s-7.294,0.765-17.227,2.507
			c5.88-3.098,8.854-6.185,8.854-6.185s-17.43,1.532-23.073,2.791c-5.64,1.261-33.394,1.563-49.58-1.923l-1.533,5.367
			c0,0,22.051,5.742,39.285,5.988c-11.322,3.45-21.659,8.068-26.298,14.102c-12.191,15.86-3.064,30.722-23.211,52.243
			C684.735,667.249,678.601,651.974,662.956,651.716z M700.133,502.796l6.817,37.294c18.896,4.972,42.81,6.045,69.893,7.814
			c27.093,1.771,60.211,14.016,60.211,14.016s-40.771-17.499-69.802-23.951c7.991-2.494,17.313-8.252,26.654-7.144
			c22.22,2.631,56.429,28.129,56.429,28.129s-5.349-5.018-13.161-11.391c6.188,2.42,10.469,2.65,10.469,2.65
			s-12.559-12.182-17.202-15.627c-4.643-3.441-23.021-24.24-30.972-38.765l-5.064,2.352c0,0,10.078,20.437,21.165,33.634
			c-10.014-6.308-20.27-11.105-27.868-10.672c-19.97,1.153-25.245,17.777-54.703,16.612
			C702.626,529.431,710.168,514.797,700.133,502.796z M1132.407,721.502l27.916,13.413c0,0,6.087-28.641,6.91-44.265
			c0.821-15.623-3.106-20.612-11.49-39.857c-8.386-19.239-4.789-40.093-4.789-40.093s-6.006,8.702-8.876,22.226
			c-2.875,13.526,0,0,8.525,34.239C1159.131,701.401,1148.956,698.408,1132.407,721.502z M1030.25,651.716l32.673,19.232
			c16.117-11.04,32.567-28.429,51.623-47.76c13.851-14.054,33.955-26.889,43.915-32.858c2.691,2.163,5.732,4.483,8.991,6.817
			l-11.454,7.225c1.443,1.44,3.501,4.13,6.469,8.878c11.284,18.049,5.997,14.144,13.103,23.043
			c7.102,8.902,23.86,12.391,37.188,19.17c8.759,4.456,15.699,3.979,15.699,3.979s-12.182-10.049-18.78-13.109
			c-6.603-3.053-19.167-9.676-28.3-21.12c-5.978-7.497-8.348-18.28-9.279-24.852c7.546,5.041,15.985,9.815,24.396,12.76
			c25.178,8.809,25.921,10.352,39.721,10.556c13.803,0.197,15.506,14.415,35.997,29.287c20.491,14.875,56.579,11.574,56.579,11.574
			s-16.022-5.604-35.866-12.035c-19.845-6.428-22.774-15.671-29.528-25.744c-6.757-10.067-18.15-17.14-34.774-34.257
			c-16.618-17.115-19.638-20.231-27.06-37.211l-2.936,17.214c15.753,24.007,36.614,39.271,36.614,39.271s-21.333-7.799-39.735-8.072
			c-6.918-0.101-15.677-3.594-23.917-7.913c-0.058-0.748-0.079-1.204-0.079-1.204l-0.997,0.629
			c-3.593-1.926-7.068-3.986-10.226-5.973c2.654-1.563,4.236-2.435,4.236-2.435s-1.681,0.817-4.527,2.255
			c-8.312-5.25-14.332-9.896-14.332-9.896s4.862,4.763,12.422,10.864c-12.26,6.239-39.344,20.545-57.33,33.915
			c3.337-7.677,7.368-16.663,12.029-24.836c10.106-17.721,26.212-20.629,26.212-20.629s-24.729,2.249-37.601,18.987
			c-12.19,15.86-3.063,30.722-23.21,52.243C1052.029,667.249,1045.895,651.974,1030.25,651.716z M990.771,563.063
			c-6.334,9.869-23.342,29.688-23.342,29.688s13.065,3.026,16.301,1.887c3.234-1.139,14.125-29.528,14.125-29.528l8.815,38.891
			l20.641,1.807c-15.429-13.829-18.813-21.362-20.122-34.354c-1.31-12.993-6.728-12.9-1.647-32.511
			c5.079-19.613,15.623-37.146,15.623-37.146s-13.907,11.088-19.104,24.195C996.865,539.093,997.107,553.188,990.771,563.063z
			 M874.765,581.18l27.919,13.412c0,0,6.084-28.641,6.907-44.265c0.821-15.623-3.104-20.612-11.49-39.857
			c-8.386-19.239-4.793-40.093-4.793-40.093s-6.002,8.702-8.871,22.226c-2.875,13.527,0,0,8.525,34.239
			C901.489,561.078,891.313,558.085,874.765,581.18z"/>
	</g>
	<g>
		<path fill="#9C8F7F" d="M281.153,445.777c19.622,12.173,35.44,33.529,73.286,26.76c37.854-6.772,59.921-37.433,62.542-63.896
			c2.621-26.46-8.66-57.33-42.452-63.922c-33.793-6.59-42.282-5.228-55.296-9.819c-13.018-4.595-24.025-17.019-49.707-26.754
			c-9.106-3.451-34.104-3.748-45.714,2.456c-6.793,3.627-12.221,1.246-12.221,1.246l21.992-11.678c0,0,4.753-14.432-0.123-56.395
			c-4.88-41.961-4.19-73.843-1.866-92.701c2.33-18.858,13.185-22.698,19.074-29.168c5.889-6.476,8.659-8.114,12.61-10.699
			c3.954-2.591,10.583-4.017,11.658-11.876c1.082-7.865,1.671-13.194,0.174-15.297c-1.495-2.109-5.266-2.456-8.138-4.499
			c-2.866-2.04-2.87,0.626-3.576,3.786c-0.71,3.148,0.872,5.122,3.022,6.515c2.15,1.387,0.353,2.693,0.401,3.493
			c0.063,0.794-2.073-0.012-3.037,0.889c-0.964,0.902-3.286-2.878-3.81-5.31c-0.521-2.429,2.899-14.207,2.917-17.331
			c0.024-3.127-3.373-7.599-6.437-8.15c-3.07-0.554-6.919,0.102-9.372,0.802c-2.444,0.701-6.081-2.503-8.558-3.537
			c-2.48-1.021-5.796-0.309-10.292,1.357c-4.499,1.659-5.868,3.343-8.474,2.516c-2.606-0.824-7.312-4.151-10.495-3.633
			c-3.181,0.509-8.444,0.26-13.431,4.454c-4.996,4.202-14.075,37.722-12.22,46.34c1.856,8.617,1.443,16.339,0.191,21.808
			c-1.247,5.473-46.268,126.521-53.364,177.303c-7.093,50.785-5.361,50.758,5.188,62.704c10.549,11.954,31.01,28.006,72.377,46.146
			C249.376,437.824,258.593,431.789,281.153,445.777z"/>
		
			<linearGradient id="SVGID_3_" gradientUnits="userSpaceOnUse" x1="1643.9609" y1="1079.4844" x2="1457.9065" y2="999.8838" gradientTransform="matrix(0.5423 -0.8402 -0.8402 -0.5423 242.7896 2048.7976)">
			<stop  offset="0" style="stop-color:#D6D7D2"/>
			<stop  offset="1" style="stop-color:#D6D7D2;stop-opacity:0"/>
		</linearGradient>
		<path fill="url(#SVGID_3_)" d="M238.521,60.691c2.477,1.034,6.113,4.238,8.558,3.537c2.453-0.701,6.302-1.356,9.372-0.802
			c3.064,0.551,6.461,5.023,6.437,8.15c-0.018,3.125-3.439,14.902-2.917,17.331c0.524,2.432,2.846,6.212,3.81,5.31
			c0.964-0.901,3.1-0.095,3.037-0.889c-0.048-0.8,1.749-2.105-0.401-3.493c-2.15-1.393-3.732-3.367-3.022-6.515
			c0.707-3.16,0.71-5.826,3.576-3.786c2.873,2.043,6.644,2.39,8.138,4.499c1.498,2.103,0.908,7.432-0.174,15.297
			c-1.075,7.86-7.704,9.286-11.658,11.876c-3.951,2.585-6.721,4.223-12.61,10.699c-5.889,6.47-16.744,10.31-19.074,29.168
			c-2.325,18.858-3.014,50.74,1.866,92.701c0.47,4.05,0.83,7.767,1.135,11.319c-14.389,3.849-44.438-0.821-71.312-19.319
			c-4.277-2.953-8.117-5.245-11.538-7.102c14.662-46.567,31.301-91.841,32.056-95.14c1.252-5.469,1.665-13.191-0.191-21.808
			c-1.854-8.618,7.224-42.138,12.22-46.34c4.987-4.194,10.25-3.945,13.431-4.454c3.184-0.518,7.889,2.81,10.495,3.633
			c2.606,0.827,3.975-0.857,8.474-2.516C232.725,60.383,236.041,59.67,238.521,60.691z"/>
		<g>
			<defs>
				<path id="SVGID_4_" d="M281.153,445.777c19.622,12.173,35.44,33.529,73.286,26.76c37.854-6.772,59.921-37.433,62.542-63.896
					c2.621-26.46-8.66-57.33-42.452-63.922c-33.793-6.59-42.282-5.228-55.296-9.819c-13.018-4.595-24.025-17.019-49.707-26.754
					c-9.106-3.451-34.104-3.748-45.714,2.456c-6.793,3.627-12.221,1.246-12.221,1.246l21.992-11.678c0,0,4.753-14.432-0.123-56.395
					c-4.88-41.961-4.19-73.843-1.866-92.701c2.33-18.858,13.185-22.698,19.074-29.168c5.889-6.476,8.659-8.114,12.61-10.699
					c3.954-2.591,10.583-4.017,11.658-11.876c1.082-7.865,1.671-13.194,0.174-15.297c-1.495-2.109-5.266-2.456-8.138-4.499
					c-2.866-2.04-2.87,0.626-3.576,3.786c-0.71,3.148,0.872,5.122,3.022,6.515c2.15,1.387,0.353,2.693,0.401,3.493
					c0.063,0.794-2.073-0.012-3.037,0.889c-0.964,0.902-3.286-2.878-3.81-5.31c-0.521-2.429,2.899-14.207,2.917-17.331
					c0.024-3.127-3.373-7.599-6.437-8.15c-3.07-0.554-6.919,0.102-9.372,0.802c-2.444,0.701-6.081-2.503-8.558-3.537
					c-2.48-1.021-5.796-0.309-10.292,1.357c-4.499,1.659-5.868,3.343-8.474,2.516c-2.606-0.824-7.312-4.151-10.495-3.633
					c-3.181,0.509-8.444,0.26-13.431,4.454c-4.996,4.202-14.075,37.722-12.22,46.34c1.856,8.617,1.443,16.339,0.191,21.808
					c-1.247,5.473-46.268,126.521-53.364,177.303c-7.093,50.785-5.361,50.758,5.188,62.704
					c10.549,11.954,31.01,28.006,72.377,46.146C249.376,437.824,258.593,431.789,281.153,445.777z"/>
			</defs>
			<clipPath id="SVGID_5_">
				<use xlink:href="#SVGID_4_"  overflow="visible"/>
			</clipPath>
			<path clip-path="url(#SVGID_5_)" fill="#212020" d="M273.317,455.561l-3.439-2.796
				C266.896,458.799,273.317,455.561,273.317,455.561z M274.44,406.065c8.839-13.697,0,0,4.972-41.316
				c4.969-41.299,14.926-33.733,42.854-52.238l-25.133-26.494c0,0-18.723,29.007-26.188,45.875
				c-7.458,16.87-5.229,24.02-4.067,48.746c1.168,24.72-11.544,46.19-11.544,46.19S265.602,419.76,274.44,406.065z M155.633,430.972
				c0,0,36.152-37.813,55.263-67.217c-0.54,9.857-1.313,21.444-3.109,32.391c-3.9,23.731-20.515,33.559-20.515,33.559
				s26.416-12.63,33.778-36.413c6.973-22.54-9.22-35.219,4.223-67.28c21.725-30.118,34.775-15.746,52.175-21.88l-44.01-7.859
				c-13.287,18.816-24.339,44.788-37.477,73.98C182.827,399.443,155.633,430.972,155.633,430.972z M368.936,421.776
				c-6.869,15.351-14.848,51.298-20.12,78.329l18.439-0.275c8.051-31.334,9.054-35.248,9.021-61.143
				c-0.024-25.886,10.307-46.615,10.307-46.615S375.798,406.42,368.936,421.776z M229.382,435.194
				c11.49-14.267,24.7-20.586,23.357-39.717c-1.351-19.134,1.276-39.121,1.276-39.121s-10.298,23.03-15.345,41.458
				c-5.047,18.432-22.075,35.979-24.445,37.875L229.382,435.194z M304.223,351.087c0,0-6.662,17.394-7.602,25.913
				c-0.935,8.531-3.615,25.065-12.976,39.568c-9.363,14.509-30.534,22.536-30.534,22.536l16.767,13.661
				c1.07-2.158,3.304-5.466,7.495-10.563c15.941-19.397,18.122-15.701,25.399-26.982c7.279-11.28,2.924-24.668,5.494-42.113
				C309.962,361.643,304.223,351.087,304.223,351.087z M238.249,291.763l3.816-29.492c0,0-8.524-0.94-19.895-2.189
				c-11.37-1.255-11.37-1.252-35.739,5.853c-24.364,7.096-34.838,18.606-34.838,18.606s22.356,0.734,37.51-6.23
				C204.243,271.341,217.141,279.662,238.249,291.763z M347.007,354.352c-4.571-21.215-2.762-42.877-2.762-42.877
				s-3.241,8.566-6.686,39.826c-3.438,31.261-5.014,32.529-1.584,48.436c3.43,15.915-12.451,21.647-24.1,49.136
				c-11.649,27.49,1.722,68.073,1.722,68.073s2.184-19.897,4.304-44.402c2.124-24.508,11.966-30.324,21.743-40.756
				c9.771-10.439,14.875-25.406,30.129-49.042c15.258-23.643,18.031-27.935,35.572-40.97l-20.557,1.195
				c-23.402,24.471-35.404,52.493-35.404,52.493S351.578,375.562,347.007,354.352z M193.792,188.503
				c0,0,14.731,12.544,20.104,16.007c5.364,3.468,9.42,13.691,19.232,29.159l13.689-9.426c0,0-8.349-12.997-23.774-24.474
				C207.625,188.291,193.792,188.503,193.792,188.503z M182.375,302.881c-13.695,9.423-22.716,23.396-35.401,28.902
				c-12.688,5.509-42.356,13.757-42.356,13.757s10.813,11.541,14.725,12.547c3.918,1.006,33.227-19.646,33.227-19.646
				l-16.902,43.878l19.029,15.324c-6.029-23.678-4.4-33.278,2.849-46.865c7.246-13.581,1.881-17.049,19.727-32.927
				c17.858-15.875,39.696-26.122,39.696-26.122S196.068,293.458,182.375,302.881z M177.079,233.265
				c-10.553-6.053-10.705-4.631-23.346-7.458c-12.634-2.827-18.226-9.483-18.226-9.483l-4.143,19.394c0,0,13.671,1.213,35.177,4.442
				c21.512,3.226,12.13,4.784,35.785,9.399C202.326,249.559,187.634,239.315,177.079,233.265z M253.351,293.713
				c0,0,6.057-4.077-12.437-4.598c-18.499-0.527-37.492,19.176-56.293,43c-18.798,23.821-11.182,35.012-11.182,35.012
				s1.626-6.946,8.617-19.547c7.003-12.607,20.512-25.574,37.238-36.465"/>
		</g>
	</g>
	<g>
		<g>
			<path fill="#FFFFFF" d="M128.89,532.662c-5.146,0-10.225-0.422-15.107-1.259c-8.01-1.375-14.884-3.534-20.439-6.415
				c-7.525-3.67-34.273-20.339-36.015-39.532c-1.702-18.766,8.154-31.502,20.865-36.81c-5.676-3.749-10.734-8.797-15.101-15.077
				c-6.028-8.667-9.69-19.302-10.889-31.607c-1.697-17.472,3.323-33.481,14.922-47.577c11.602-14.102,28.26-22.297,49.513-24.361
				c3.66-0.356,7.303-0.536,10.832-0.536c6.637,0,13.047,0.635,19.056,1.893c9.794,2.061,16.647,4.55,21.532,7.83l5.772,3.559
				c0.317,0.198,0.623,0.407,0.922,0.629c13.533,10.16,19.065,31.72,11.604,45.241c-3.448,6.308-8.723,11.282-15.226,14.548
				c0.761,0.255,1.513,0.518,2.262,0.788c8.995,3.24,16.771,9.41,23.111,18.343c6.069,8.549,9.765,19.227,10.978,31.731
				c1.195,12.308-0.296,23.711-4.445,33.886c-4.214,10.338-10.427,18.799-18.463,25.146c-13.722,11.017-29.294,17.469-46.214,19.119
				C135.187,532.506,132.006,532.662,128.89,532.662z M127.542,463.524c2.279,1.075,3.325,1.087,3.367,1.087
				c1-0.095,1.849-0.222,2.567-0.356c-1.411-0.293-2.933-0.51-4.556-0.647c-0.491-0.041-0.985-0.086-1.485-0.134
				C127.471,463.489,127.507,463.507,127.542,463.524z"/>
		</g>
		<g>
			<path fill="#FFFFFF" d="M268.489,532.856c-7.344,0-14.234-1.968-20.47-5.844c-6.937-4.32-11.843-10.633-14.593-18.777
				l-46.457-127.965c-0.533-1.313-1.031-2.552-1.474-3.714c-0.941-2.399-1.468-5.044-1.546-7.806
				c-0.143-5.397,0.749-10.471,2.66-15.093c1.881-4.571,4.552-8.57,7.943-11.879c3.333-3.256,7.243-5.805,11.616-7.569
				c4.259-1.713,8.752-2.642,13.365-2.761l1.055-0.018c6.823,0,13.224,1.791,19.026,5.32c6.667,4.058,11.442,10.519,14.18,19.206
				l13.194,42.88l10.043-42.053c1.929-8.444,5.901-15.246,11.771-20.099c5.889-4.876,13.251-7.47,21.884-7.709l0.922-0.012
				c6.842,0,13.503,2.046,19.805,6.084c7.075,4.532,11.933,11.259,14.428,19.987l11.19,38.462l8.839-39.93
				c2.019-8.83,6.098-15.579,12.137-20.131c5.757-4.328,12.514-6.623,20.098-6.826l1.012-0.015c4.127,0,8.226,0.704,12.185,2.088
				c4.289,1.516,8.183,3.741,11.604,6.62c3.639,3.061,6.583,6.919,8.758,11.466c2.157,4.517,3.325,9.537,3.469,14.923
				c0.048,1.764-0.006,3.594-0.168,5.589c-0.204,2.408-0.665,4.786-1.372,7.111l-37.033,129.388
				c-2.813,9.004-7.746,15.683-14.749,20.14c-6.386,4.073-12.963,6.233-19.539,6.413l-1.117,0.019
				c-7.422,0-14.288-2.014-20.41-5.979c-6.5-4.202-11.376-10.324-14.479-18.188l-12.376-31.627L303.8,506.594
				c-2.717,8.688-7.653,15.368-14.656,19.831c-6.392,4.073-12.967,6.233-19.542,6.413L268.489,532.856z"/>
		</g>
		<g>
			<path fill="#FFFFFF" d="M516.331,526.291c-14.155,0-27.592-2.698-39.933-8.02c-12.251-5.276-23.148-12.643-32.385-21.889
				c-9.25-9.247-16.612-20.143-21.884-32.385c-5.316-12.338-8.016-25.771-8.016-39.925c0-14.15,2.699-27.586,8.022-39.934
				c5.265-12.232,12.628-23.129,21.88-32.384c9.252-9.25,20.149-16.612,32.385-21.884c12.355-5.32,25.792-8.015,39.93-8.015
				c14.126,0,27.587,2.69,40.02,8c12.35,5.281,23.271,12.664,32.46,21.941c9.136,9.231,16.474,20.089,21.812,32.271
				c5.424,12.37,8.174,25.828,8.174,40.005s-2.75,27.638-8.174,40.002c-5.338,12.185-12.676,23.043-21.806,32.266
				c-9.18,9.276-20.101,16.659-32.457,21.946C543.936,523.598,530.468,526.291,516.331,526.291z M516.583,396.002
				c-3.99,0-7.579,0.725-10.969,2.219c-3.552,1.567-6.554,3.598-9.166,6.216c-2.606,2.6-4.628,5.613-6.188,9.226
				c-1.516,3.492-2.25,7.141-2.25,11.16c0,3.998,0.722,7.584,2.214,10.957c1.569,3.567,3.6,6.566,6.215,9.178
				c2.573,2.579,5.521,4.547,9.019,6.025c3.427,1.456,7.063,2.163,11.125,2.163c4.055,0,7.691-0.707,11.118-2.159
				c3.546-1.504,6.565-3.505,9.237-6.117c2.658-2.596,4.697-5.564,6.249-9.085c1.491-3.384,2.216-6.969,2.216-10.962
				c0-4.014-0.737-7.665-2.246-11.16c-1.549-3.568-3.583-6.554-6.212-9.124c-2.726-2.666-5.799-4.732-9.405-6.319
				C524.155,396.727,520.566,396.002,516.583,396.002z"/>
		</g>
		<g>
			<path fill="#FFFFFF" d="M700.412,532.009c-1.429,0-2.911-0.075-4.405-0.228l-49.86-5.032
				c-11.34-1.142-19.979-5.332-25.679-12.457c-5.637-7.048-7.911-16.412-6.76-27.823l12.904-127.878
				c1.417-14.048,8.381-21.752,13.976-25.741c6.476-4.619,13.772-6.962,21.686-6.962c1.354,0,2.741,0.069,4.122,0.21
				c9.453,0.953,17.525,4.892,23.989,11.702c4.777,5.042,10.176,14.003,8.755,28.105l-9.237,91.495l13.474,1.359
				c14.021,1.414,21.509,8.509,25.324,14.213c5.038,7.545,7.102,16.195,6.142,25.72c-0.956,9.486-4.688,17.57-11.092,24.021
				C717.713,528.795,709.644,532.009,700.412,532.009z"/>
		</g>
		<g>
			<path fill="#FFFFFF" d="M761.95,528.243c-20.874,0-34.045-13.044-35.225-34.892l-6.871-127.093
				c-0.62-11.455,2.088-20.698,8.045-27.473c6.023-6.853,14.851-10.639,26.235-11.256l82.561-4.463
				c0.855-0.048,1.703-0.071,2.534-0.071c10.033,0,18.734,3.462,25.166,10.016c6.651,6.793,10.283,15.15,10.807,24.849
				c0.526,9.699-2.184,18.4-8.058,25.861c-3.046,3.864-7.982,8.327-15.603,10.879c1.825,1.192,3.522,2.58,5.083,4.157
				c6.317,6.401,9.765,14.233,10.253,23.286c0.489,9.064-2.097,17.22-7.68,24.249c-1.255,1.582-2.852,3.269-4.841,4.87
				c6.538,1.366,12.267,4.407,16.843,8.995c6.691,6.707,10.349,15.049,10.873,24.799c0.527,9.701-2.184,18.405-8.061,25.857
				c-4.295,5.457-12.38,12.122-26.475,12.883l-82.56,4.464C763.947,528.217,762.936,528.243,761.95,528.243z"/>
		</g>
		<g>
			<path fill="#FFFFFF" d="M913.215,523.771c-9.111,0-17.205-2.803-24.049-8.336c-5.332-4.295-11.802-12.493-12.266-27.084
				l-4.089-129.722c-0.452-14.105,5.439-22.662,10.46-27.356c6.847-6.398,15.24-9.794,24.95-10.1
				c0.446-0.012,0.884-0.021,1.321-0.021c8.971,0,17.047,2.849,23.998,8.461c5.409,4.379,11.934,12.557,12.377,26.712l0.093,2.965
				l16.669-25.245c3.318-5.292,6.999-9.054,11.25-11.496c4.276-2.456,9.894-3.762,17.175-3.993c0.563-0.018,1.117-0.027,1.663-0.027
				c10.684,0,19.486,3.298,26.163,9.8c6.805,6.638,10.565,15.486,10.885,25.592c0.129,4.062-0.353,8.093-1.432,11.975
				c-1.258,4.502-3.486,8.516-6.628,11.957l-32.635,39.265l36.195,43.447c5.748,6.802,8.824,14.416,9.079,22.56
				c0.344,10.819-3.112,20.212-9.995,27.156c-6.797,6.85-15.678,10.495-26.395,10.836c-0.417,0.013-0.821,0.02-1.219,0.02
				c-5.018,0-9.873-0.979-14.432-2.919c-5.308-2.243-9.908-5.93-13.656-10.95l-18.792-24.588l0.104,3.36
				c0.459,14.636-5.586,23.24-10.737,27.886c-6.901,6.212-15.195,9.516-24.655,9.822
				C914.141,523.766,913.677,523.771,913.215,523.771z"/>
		</g>
		<g>
			<path fill="#FFFFFF" d="M1049.633,533.551c-2.402,0-4.826-0.215-7.204-0.641c-4.573-0.814-8.914-2.366-12.897-4.612
				c-4.262-2.418-7.908-5.605-10.852-9.486c-3.166-4.196-5.209-9.067-6.087-14.497c-0.995-6.146-0.827-11.199,0.524-15.417
				l37.803-138.353c1.771-6.379,4.631-11.879,8.507-16.396c4.625-5.38,11.787-8.894,21.281-10.439
				c2.676-0.435,5.251-0.656,7.659-0.656c5.829,0,10.984,1.277,15.327,3.798c5.409,3.139,9.977,7.719,13.584,13.617l74.376,119.766
				c2.527,3.669,4.22,8.312,5.17,14.168c0.855,5.292,0.442,10.474-1.232,15.411c-1.548,4.564-3.914,8.687-7.032,12.253
				c-2.978,3.412-6.595,6.329-10.744,8.662c-4.169,2.355-8.602,3.934-13.155,4.673c-2.216,0.36-4.409,0.542-6.521,0.542
				c-12.754,0-23.424-6.721-30.036-18.933l-5.748-10.271l-34.779,5.652c0,0-2.806,12.442-2.836,12.563
				c-2.04,7.917-5.646,14.348-10.721,19.116c-5.187,4.87-11.139,7.874-17.692,8.935
				C1054.12,533.366,1051.861,533.551,1049.633,533.551z"/>
		</g>
		<g>
			<path fill="#FFFFFF" d="M1220.43,530.092c-0.539,0-1.082-0.009-1.629-0.029c-9.498-0.352-17.76-3.721-24.559-10.018
				c-5.035-4.664-10.924-13.283-10.385-27.871l3.387-91.649l-4.765-0.177c-14.103-0.518-22.298-7.042-26.685-12.428
				c-6-7.356-8.861-16.012-8.498-25.723c0.356-9.705,3.85-18.124,10.375-25.017c6.482-6.841,15.393-10.457,25.775-10.457
				c0.578,0,1.164,0.009,1.758,0.033l82.127,3.04c14.03,0.512,22.28,6.991,26.728,12.332c6.138,7.386,9.064,16.066,8.704,25.819
				c-0.361,9.771-3.923,18.217-10.585,25.113c-6.544,6.778-15.478,10.363-25.825,10.363c-0.576,0-1.156-0.012-1.743-0.03
				l-4.269-0.161l-3.394,91.646c-0.542,14.645-7.168,22.815-12.629,27.09C1237.437,527.36,1229.398,530.092,1220.43,530.092z"/>
		</g>
	</g>
	<g>
		<g>
			<g>
				<path fill="#9C8F7F" d="M186.505,429.424c-4.871-6.859-10.678-11.533-17.268-13.904c-6.158-2.217-12.915-3.983-20.077-5.245
					c-7.117-1.25-13.733-2.062-19.664-2.418c-5.409-0.319-10.037-1.494-13.766-3.492c-3.271-1.749-4.939-4.056-5.254-7.261
					c-0.314-3.252,0.625-5.721,2.962-7.777c2.549-2.245,6.015-3.593,10.301-4.01c4.358-0.422,8.024,0.079,10.717,1.395
					c1.021,0.593,2.198,1.404,3.493,2.401c2.054,1.594,2.845,2.072,3.294,2.313c5.565,2.876,10.124,4.092,13.934,3.72
					c5.379-0.521,15.192-2.833,20.44-12.437c4.014-7.266,1.045-22.536-8.229-29.497l-5.997-3.699
					c-3.478-2.393-9.163-4.394-17.375-6.122c-8.016-1.675-16.828-2.064-26.191-1.153c-17.896,1.737-31.766,8.446-41.225,19.942
					c-9.458,11.496-13.557,24.48-12.185,38.598c0.991,10.189,3.935,18.863,8.75,25.789c4.844,6.967,10.629,11.933,17.198,14.776
					c6.21,2.681,12.929,4.921,19.962,6.654c7.038,1.74,13.646,2.879,19.64,3.389c5.497,0.47,10.187,1.629,13.943,3.438
					c4.664,2.254,4.924,4.952,5.014,5.842c0.599,6.177-0.497,14.568-16.863,16.162c-2.797,0.27-6.074-0.47-9.743-2.204
					c-3.855-1.814-6.886-3.813-9.217-6.135c-8.063-6.625-15.007-10.104-20.641-10.333c-0.838-0.037-1.729-0.007-2.655,0.083
					c-10.8,1.049-21.748,9.669-20.257,26.11c1.059,11.661,21.186,25.799,29.305,29.675c4.451,2.336,10.168,4.115,17.001,5.289
					c6.793,1.162,13.967,1.391,21.32,0.677c14.5-1.413,27.896-6.979,39.798-16.533c6.356-5.021,11.304-11.796,14.707-20.147
					c3.388-8.313,4.598-17.762,3.595-28.071C194.266,444.891,191.318,436.204,186.505,429.424z"/>
			</g>
			<g>
				<path fill="#9C8F7F" d="M377.85,356.218c1.345-5.883,3.861-10.21,7.545-12.987c3.684-2.771,8.031-4.227,13.041-4.362
					c3.002-0.083,5.937,0.384,8.806,1.391c2.87,1.012,5.458,2.483,7.767,4.426c2.306,1.941,4.167,4.397,5.586,7.369
					c1.416,2.966,2.178,6.291,2.276,9.962c0.036,1.336-0.012,2.756-0.135,4.265c-0.129,1.504-0.419,3.019-0.881,4.535
					l-37.09,129.582c-1.845,5.9-5.026,10.292-9.543,13.167c-4.517,2.882-8.946,4.379-13.287,4.499
					c-5.347,0.145-10.184-1.187-14.521-3.995c-4.337-2.805-7.581-6.938-9.735-12.395l-25.043-63.985l-20.539,65.219
					c-1.845,5.901-5.029,10.292-9.543,13.167c-4.523,2.882-8.95,4.379-13.287,4.499c-5.347,0.145-10.271-1.187-14.773-3.983
					c-4.505-2.804-7.668-6.938-9.483-12.4l-46.588-128.321c-0.537-1.321-1.033-2.562-1.48-3.72c-0.45-1.153-0.689-2.399-0.728-3.741
					c-0.099-3.669,0.476-7.027,1.734-10.07c1.252-3.043,2.977-5.637,5.176-7.785c2.199-2.148,4.742-3.801,7.635-4.969
					c2.89-1.162,5.925-1.791,9.097-1.875c4.84-0.132,9.303,1.042,13.38,3.522c4.077,2.48,7.03,6.62,8.857,12.416l26.389,85.758
					l20.482-85.776c1.345-5.883,3.894-10.382,7.656-13.491c3.756-3.112,8.557-4.742,14.404-4.903
					c4.673-0.125,9.265,1.252,13.77,4.139c4.504,2.885,7.593,7.231,9.252,13.033l24.6,84.554L377.85,356.218z"/>
			</g>
			<g>
				<path fill="#9C8F7F" d="M426.382,424.073c0-12.528,2.339-24.22,7.018-35.077c4.676-10.858,11.104-20.377,19.293-28.563
					c8.18-8.181,17.702-14.614,28.563-19.293c10.855-4.673,22.548-7.015,35.075-7.015s24.262,2.342,35.201,7.015
					c10.939,4.679,20.461,11.112,28.563,19.293c8.099,8.186,14.534,17.705,19.292,28.563c4.76,10.857,7.141,22.549,7.141,35.077
					c0,12.526-2.381,24.22-7.141,35.075c-4.759,10.86-11.193,20.38-19.292,28.563c-8.102,8.189-17.624,14.617-28.563,19.296
					c-10.938,4.679-22.674,7.016-35.201,7.016s-24.22-2.337-35.075-7.016c-10.861-4.679-20.383-11.106-28.563-19.296
					c-8.189-8.183-14.617-17.702-19.293-28.563C428.722,448.293,426.382,436.6,426.382,424.073z M475.742,424.822
					c0,5.682,1.084,10.986,3.256,15.91c2.169,4.931,5.095,9.232,8.77,12.904c3.672,3.678,7.974,6.557,12.904,8.645
					c4.924,2.091,10.232,3.134,15.912,3.134c5.675,0,10.98-1.043,15.91-3.134c4.925-2.088,9.268-4.967,13.027-8.645
					c3.759-3.672,6.721-7.974,8.893-12.904c2.168-4.924,3.258-10.229,3.258-15.91c0-5.673-1.09-11.022-3.258-16.034
					c-2.172-5.011-5.134-9.354-8.893-13.026c-3.759-3.672-8.102-6.598-13.027-8.771c-4.93-2.167-10.235-3.258-15.91-3.258
					c-5.679,0-10.987,1.091-15.912,3.258c-4.93,2.173-9.231,5.099-12.904,8.771c-3.675,3.673-6.601,8.016-8.77,13.026
					C476.826,413.8,475.742,419.149,475.742,424.822z"/>
			</g>
			<g>
				<path fill="#9C8F7F" d="M647.381,514.543c-15.953-1.605-23.109-10.552-21.464-26.844l12.903-127.88
					c0.77-7.644,3.732-13.305,8.89-16.983c5.152-3.672,10.972-5.188,17.454-4.532s11.918,3.304,16.321,7.94
					c4.4,4.643,6.215,10.789,5.445,18.43l-10.465,103.7l25.678,2.591c7.479,0.755,12.929,3.699,16.358,8.827
					c3.427,5.131,4.804,11.021,4.133,17.666c-0.671,6.649-3.201,12.188-7.593,16.612c-4.394,4.426-10.325,6.26-17.801,5.506
					L647.381,514.543z"/>
			</g>
			<g>
				<path fill="#9C8F7F" d="M764.316,515.909c-16.007,0.868-24.457-6.871-25.341-23.22l-6.87-127.093
					c-0.884-16.345,6.68-24.951,22.691-25.817l82.56-4.463c7.671-0.416,13.764,1.684,18.283,6.288
					c4.515,4.61,6.952,10.25,7.312,16.917c0.362,6.673-1.455,12.541-5.445,17.609c-3.996,5.068-9.827,7.806-17.495,8.219
					l-58.294,3.155l0.907,16.761l48.532-2.624c7.006-0.38,12.586,1.536,16.743,5.742c4.158,4.212,6.404,9.315,6.728,15.321
					s-1.356,11.325-5.035,15.955c-3.681,4.631-9.021,7.136-16.027,7.513l-48.535,2.623l0.919,17.014l58.295-3.151
					c7.668-0.413,13.76,1.642,18.274,6.164c4.511,4.523,6.946,10.125,7.305,16.792c0.363,6.675-1.456,12.544-5.445,17.606
					c-3.995,5.074-9.827,7.812-17.499,8.225L764.316,515.909z"/>
			</g>
			<g>
				<path fill="#9C8F7F" d="M937.75,486.43c0.251,8.016-1.983,14.144-6.688,18.386c-4.719,4.246-10.325,6.463-16.837,6.673
					c-6.683,0.21-12.464-1.647-17.349-5.596c-4.885-3.936-7.458-9.914-7.714-17.93l-4.087-129.72
					c-0.246-7.677,1.949-13.683,6.573-18.004c4.626-4.322,10.28-6.593,16.96-6.802c6.505-0.204,12.248,1.704,17.226,5.724
					c4.97,4.022,7.582,9.875,7.82,17.549l1.313,41.572l38.037-57.603c2.229-3.582,4.574-6.075,7.036-7.488s6.278-2.205,11.453-2.369
					c8.019-0.252,14.307,1.848,18.878,6.299c4.563,4.455,6.96,10.184,7.183,17.193c0.09,2.843-0.243,5.607-0.992,8.303
					c-0.755,2.702-2.095,5.08-4.034,7.146l-39.365,47.368l42.729,51.291c3.992,4.723,6.074,9.752,6.242,15.093
					c0.239,7.516-1.914,13.561-6.446,18.131c-4.534,4.571-10.559,6.973-18.073,7.213c-3.676,0.113-7.161-0.527-10.463-1.929
					c-3.301-1.396-6.176-3.728-8.617-6.998l-42.096-55.071L937.75,486.43z"/>
			</g>
			<g>
				<path fill="#9C8F7F" d="M1128.867,473.253l-51.436,8.359l-4.573,20.284c-1.456,5.656-3.867,10.064-7.24,13.234
					c-3.382,3.175-7.132,5.098-11.247,5.762c-3.301,0.54-6.563,0.516-9.786-0.06c-3.226-0.575-6.233-1.647-9.027-3.223
					c-2.792-1.582-5.158-3.648-7.102-6.212c-1.936-2.564-3.19-5.572-3.75-9.04c-0.695-4.283-0.644-7.59,0.161-9.921l37.888-138.658
					c1.279-4.606,3.271-8.482,5.979-11.633c2.701-3.145,7.352-5.254,13.945-6.326c6.263-1.018,11.221-0.467,14.862,1.645
					c3.646,2.118,6.731,5.253,9.272,9.408l74.6,120.129c1.526,2.121,2.631,5.242,3.3,9.363c0.533,3.298,0.291,6.47-0.739,9.51
					c-1.034,3.047-2.58,5.748-4.648,8.115c-2.07,2.372-4.58,4.391-7.521,6.044c-2.947,1.665-5.984,2.75-9.115,3.259
					c-10.555,1.72-18.49-2.324-23.8-12.125L1128.867,473.253z M1086.366,441.323l23.247-3.777l-15.74-29.68L1086.366,441.323z"/>
			</g>
			<g>
				<path fill="#9C8F7F" d="M1244.688,494.427c-0.297,8.01-2.942,13.977-7.931,17.882c-4.997,3.912-10.829,5.739-17.506,5.494
					c-6.505-0.24-12.067-2.492-16.672-6.758c-4.605-4.266-6.76-10.405-6.464-18.415l3.844-103.909l-17.025-0.632
					c-7.677-0.282-13.557-2.921-17.634-7.92c-4.076-5-5.992-10.837-5.744-17.516c0.246-6.671,2.588-12.353,7.023-17.037
					c4.436-4.682,10.492-6.884,18.17-6.599l82.127,3.04c7.675,0.281,13.593,2.926,17.757,7.925c4.16,5.005,6.116,10.843,5.87,17.517
					c-0.248,6.68-2.63,12.359-7.149,17.037c-4.522,4.686-10.618,6.877-18.295,6.597l-16.525-0.614L1244.688,494.427z"/>
			</g>
		</g>
	</g>
	<g>
		<defs>
			<path id="SVGID_6_" d="M415.009,344.686c-2.31-1.943-4.897-3.414-7.767-4.426c-2.869-1.007-5.804-1.474-8.806-1.391
				c-5.01,0.135-9.357,1.591-13.041,4.362c-3.684,2.777-6.201,7.104-7.545,12.987l-19.203,86.744l-24.6-84.554
				c-1.66-5.802-4.748-10.148-9.252-13.033c-4.505-2.887-9.097-4.265-13.77-4.139c-5.847,0.162-10.648,1.791-14.404,4.903
				c-3.762,3.109-6.311,7.608-7.656,13.491l-20.482,85.776l-26.389-85.758c-1.827-5.796-4.78-9.936-8.857-12.416
				c-4.077-2.48-8.54-3.654-13.38-3.522c-3.172,0.084-6.207,0.713-9.097,1.875c-2.893,1.168-5.436,2.821-7.635,4.969
				c-2.199,2.147-3.924,4.742-5.176,7.785c-1.258,3.043-1.833,6.401-1.734,10.07c0.039,1.342,0.278,2.588,0.728,3.741
				c0.447,1.159,0.943,2.399,1.48,3.72l46.588,128.321c1.815,5.463,4.978,9.597,9.483,12.4c4.502,2.797,9.426,4.128,14.773,3.983
				c4.337-0.12,8.764-1.617,13.287-4.499c4.514-2.875,7.698-7.266,9.543-13.167l20.539-65.219l25.043,63.985
				c2.154,5.457,5.398,9.59,9.735,12.395c4.337,2.809,9.175,4.14,14.521,3.995c4.34-0.12,8.77-1.617,13.287-4.499
				c4.517-2.875,7.698-7.267,9.543-13.167l37.09-129.582c0.461-1.516,0.752-3.031,0.881-4.535c0.123-1.509,0.171-2.929,0.135-4.265
				c-0.099-3.672-0.86-6.997-2.276-9.962C419.176,349.083,417.315,346.627,415.009,344.686z M580.094,360.433
				c-8.102-8.181-17.624-14.614-28.563-19.293c-10.938-4.673-22.674-7.015-35.201-7.015s-24.22,2.342-35.075,7.015
				c-10.861,4.679-20.383,11.112-28.563,19.293c-8.189,8.186-14.617,17.705-19.293,28.563c-4.678,10.857-7.018,22.549-7.018,35.077
				c0,12.526,2.339,24.22,7.018,35.075c4.676,10.86,11.104,20.38,19.293,28.563c8.18,8.189,17.702,14.617,28.563,19.296
				c10.855,4.679,22.548,7.016,35.075,7.016s24.262-2.337,35.201-7.016c10.939-4.679,20.461-11.106,28.563-19.296
				c8.099-8.183,14.534-17.702,19.292-28.563c4.76-10.855,7.141-22.549,7.141-35.075c0-12.528-2.381-24.22-7.141-35.077
				C594.628,378.138,588.193,368.619,580.094,360.433z M554.413,440.732c-2.172,4.931-5.134,9.232-8.893,12.904
				c-3.759,3.678-8.102,6.557-13.027,8.645c-4.93,2.091-10.235,3.134-15.91,3.134c-5.679,0-10.987-1.043-15.912-3.134
				c-4.93-2.088-9.231-4.967-12.904-8.645c-3.675-3.672-6.601-7.974-8.77-12.904c-2.171-4.924-3.256-10.229-3.256-15.91
				c0-5.673,1.084-11.022,3.256-16.034c2.169-5.011,5.095-9.354,8.77-13.026c3.672-3.672,7.974-6.598,12.904-8.771
				c4.924-2.167,10.232-3.258,15.912-3.258c5.675,0,10.98,1.091,15.91,3.258c4.925,2.173,9.268,5.099,13.027,8.771
				c3.759,3.673,6.721,8.016,8.893,13.026c2.168,5.012,3.258,10.361,3.258,16.034C557.671,430.504,556.582,435.809,554.413,440.732z
				 M647.381,514.543c-15.953-1.605-23.109-10.552-21.464-26.844l12.903-127.88c0.77-7.644,3.732-13.305,8.89-16.983
				c5.152-3.672,10.972-5.188,17.454-4.532s11.918,3.304,16.321,7.94c4.4,4.643,6.215,10.789,5.445,18.43l-10.465,103.7
				l25.678,2.591c7.479,0.755,12.929,3.699,16.358,8.827c3.427,5.131,4.804,11.021,4.133,17.666
				c-0.671,6.649-3.201,12.188-7.593,16.612c-4.394,4.426-10.325,6.26-17.801,5.506L647.381,514.543z M186.505,429.424
				c-4.871-6.859-10.678-11.533-17.268-13.904c-6.158-2.217-12.915-3.983-20.077-5.245c-7.117-1.25-13.733-2.062-19.664-2.418
				c-5.409-0.319-10.037-1.494-13.766-3.492c-3.271-1.749-4.939-4.056-5.254-7.261c-0.314-3.252,0.625-5.721,2.962-7.777
				c2.549-2.245,6.015-3.593,10.301-4.01c4.358-0.422,8.024,0.079,10.717,1.395c1.021,0.593,2.198,1.404,3.493,2.401
				c2.054,1.594,2.845,2.072,3.294,2.313c5.565,2.876,10.124,4.092,13.934,3.72c5.379-0.521,15.192-2.833,20.44-12.437
				c4.014-7.266,1.045-22.536-8.229-29.497l-5.997-3.699c-3.478-2.393-9.163-4.394-17.375-6.122
				c-8.016-1.675-16.828-2.064-26.191-1.153c-17.896,1.737-31.766,8.446-41.225,19.942c-9.458,11.496-13.557,24.48-12.185,38.598
				c0.991,10.189,3.935,18.863,8.75,25.789c4.844,6.967,10.629,11.933,17.198,14.776c6.21,2.681,12.929,4.921,19.962,6.654
				c7.038,1.74,13.646,2.879,19.64,3.389c5.497,0.47,10.187,1.629,13.943,3.438c4.664,2.254,4.924,4.952,5.014,5.842
				c0.599,6.177-0.497,14.568-16.863,16.162c-2.797,0.27-6.074-0.47-9.743-2.204c-3.855-1.814-6.886-3.813-9.217-6.135
				c-8.063-6.625-15.007-10.104-20.641-10.333c-0.838-0.037-1.729-0.007-2.655,0.083c-10.8,1.049-21.748,9.669-20.257,26.11
				c1.059,11.661,21.186,25.799,29.305,29.675c4.451,2.336,10.168,4.115,17.001,5.289c6.793,1.162,13.967,1.391,21.32,0.677
				c14.5-1.413,27.896-6.979,39.798-16.533c6.356-5.021,11.304-11.796,14.707-20.147c3.388-8.313,4.598-17.762,3.595-28.071
				C194.266,444.891,191.318,436.204,186.505,429.424z M862.518,468.822c-4.515-4.522-10.606-6.577-18.274-6.164l-58.295,3.151
				l-0.919-17.014l48.535-2.623c7.006-0.377,12.347-2.882,16.027-7.513c3.679-4.63,5.358-9.949,5.035-15.955
				s-2.569-11.109-6.728-15.321c-4.157-4.206-9.737-6.122-16.743-5.742l-48.532,2.624l-0.907-16.761l58.294-3.155
				c7.668-0.413,13.499-3.15,17.495-8.219c3.99-5.068,5.808-10.936,5.445-17.609c-0.359-6.667-2.797-12.308-7.312-16.917
				c-4.52-4.604-10.612-6.704-18.283-6.288l-82.56,4.463c-16.012,0.866-23.575,9.472-22.691,25.817l6.87,127.093
				c0.884,16.349,9.334,24.088,25.341,23.22l82.562-4.464c7.672-0.413,13.504-3.15,17.499-8.225
				c3.989-5.063,5.809-10.932,5.445-17.606C869.464,478.947,867.028,473.346,862.518,468.822z M1284.634,349.982
				c-4.164-5-10.082-7.644-17.757-7.925l-82.127-3.04c-7.678-0.285-13.734,1.917-18.17,6.599
				c-4.436,4.685-6.777,10.366-7.023,17.037c-0.248,6.679,1.668,12.517,5.744,17.516c4.077,5,9.957,7.638,17.634,7.92l17.025,0.632
				l-3.844,103.909c-0.296,8.01,1.858,14.149,6.464,18.415c4.604,4.266,10.167,6.518,16.672,6.758
				c6.677,0.245,12.509-1.582,17.506-5.494c4.988-3.905,7.634-9.872,7.931-17.882l3.846-103.909l16.525,0.614
				c7.677,0.28,13.772-1.911,18.295-6.597c4.52-4.678,6.901-10.357,7.149-17.037C1290.75,360.825,1288.794,354.987,1284.634,349.982
				z M973.162,417.131l39.365-47.368c1.939-2.066,3.279-4.445,4.034-7.146c0.749-2.696,1.082-5.46,0.992-8.303
				c-0.223-7.009-2.619-12.738-7.183-17.193c-4.571-4.451-10.859-6.551-18.878-6.299c-5.175,0.165-8.991,0.956-11.453,2.369
				s-4.808,3.906-7.036,7.488l-38.037,57.603l-1.313-41.572c-0.238-7.674-2.851-13.527-7.82-17.549
				c-4.978-4.02-10.721-5.928-17.226-5.724c-6.68,0.209-12.334,2.48-16.96,6.802c-4.624,4.322-6.819,10.328-6.573,18.004
				l4.087,129.72c0.256,8.016,2.829,13.994,7.714,17.93c4.885,3.948,10.666,5.806,17.349,5.596
				c6.512-0.21,12.118-2.427,16.837-6.673c4.705-4.242,6.939-10.37,6.688-18.386l-1.313-41.569l42.096,55.071
				c2.441,3.271,5.316,5.602,8.617,6.998c3.302,1.401,6.787,2.042,10.463,1.929c7.515-0.24,13.539-2.642,18.073-7.213
				c4.532-4.57,6.686-10.615,6.446-18.131c-0.168-5.341-2.25-10.37-6.242-15.093L973.162,417.131z M1181.414,467.002l-74.6-120.129
				c-2.541-4.154-5.627-7.29-9.272-9.408c-3.642-2.112-8.6-2.663-14.862-1.645c-6.594,1.072-11.244,3.181-13.945,6.326
				c-2.709,3.151-4.7,7.027-5.979,11.633l-37.888,138.658c-0.805,2.331-0.856,5.638-0.161,9.921c0.56,3.468,1.814,6.476,3.75,9.04
				c1.943,2.563,4.31,4.63,7.102,6.212c2.794,1.575,5.802,2.647,9.027,3.223c3.224,0.575,6.485,0.6,9.786,0.06
				c4.115-0.664,7.865-2.587,11.247-5.762c3.373-3.17,5.784-7.578,7.24-13.234l4.573-20.284l51.436-8.359l10.022,17.915
				c5.31,9.801,13.245,13.845,23.8,12.125c3.131-0.509,6.168-1.594,9.115-3.259c2.941-1.653,5.451-3.672,7.521-6.044
				c2.068-2.367,3.614-5.068,4.648-8.115c1.03-3.04,1.272-6.212,0.739-9.51C1184.045,472.244,1182.94,469.123,1181.414,467.002z
				 M1086.366,441.323l7.507-33.457l15.74,29.68L1086.366,441.323z"/>
		</defs>
		<use xlink:href="#SVGID_6_"  overflow="visible" fill="none"/>
		<clipPath id="SVGID_7_">
			<use xlink:href="#SVGID_6_"  overflow="visible"/>
		</clipPath>
		<path opacity="0.6" clip-path="url(#SVGID_7_)" fill="#212020" d="M122.613,315.018l2.013-20.613
			c-23.004,32.205-16.394,51.803-4.125,90.142c12.269,38.34,23.534,51.331,27.871,87.008c4.334,35.68-12.535,109.293-12.535,109.293
			s18.403-26.071,30.672-56.743s0.35-59.511-19.358-105.823C126.704,370.228,122.613,315.018,122.613,315.018z M269.333,340.229
			c-3.043,18.816-9.103,20.236-21.293,45.456c-12.193,25.224-11.122,20.713-15.126,53.602c-4.004,32.885-5.155,59.776-4.16,77.652
			c0.991,17.87,5.188,40.311,17.396,65.142c0,0,27.79-8.645,29.054-25.981c1.264-17.33-21.519-44.307-22.746-63.186
			c-1.232-18.88,4.9-69.485,19.427-116.552c14.524-47.068,2.414-83.093,2.414-83.093S272.377,321.407,269.333,340.229z
			 M337.758,286.911c0,41.919-14.311,122.686-10.223,150.291c4.088,27.604,18.4,85.885,38.852,109.397
			c20.446,23.514,20.446,34.763,20.446,34.763s-0.877-20.205-25.999-67.998C318.912,433.617,350.026,317.583,337.758,286.911z
			 M451.244,400.393c-15.336,52.143-46.008,175.854-34.761,218.795c11.248,42.939,32.717,61.342,32.717,61.342
			s13.868-29.146-4.535-78.222C426.263,553.233,450.219,447.425,451.244,400.393z M888.46,295.6
			c-14.597,52.142-23.355,160.518-12.646,203.457c10.698,42.941,10.698,76.68,10.698,76.68s5.23-22.503,0.851-111.451
			C884.787,411.942,887.489,342.632,888.46,295.6z M553.484,296.112c-56.653,30.672-66.241,121.666-54.909,154.38
			c11.328,32.715,4.354,146.205,4.354,146.205s23.534-22.494,27.021-73.611c3.486-51.124-15.686-83.838-15.686-121.669
			C514.264,363.587,524.721,345.187,553.484,296.112z M581.011,412.881c2.63-40.09,2.16-98.366,2.16-98.366l-5.652-30.672
			l-6.59,27.604c-0.94,38.849-9.112,128.641-2.825,156.425c6.285,27.785,10.829,64.411,10.829,64.411
			S578.375,452.966,581.011,412.881z M660.758,296.328c2.629-40.089,2.159-98.366,2.159-98.366l-5.652-30.671l-6.59,27.604
			c-0.94,38.849-9.111,128.642-2.824,156.426c6.284,27.785,10.828,64.411,10.828,64.411S658.122,336.414,660.758,296.328z
			 M680.694,606.112c2.63-40.089,2.16-98.365,2.16-98.365l-5.652-30.672l-6.589,27.604c-0.94,38.85-9.112,128.642-2.824,156.426
			c6.284,27.784,10.828,64.41,10.828,64.41S678.058,646.197,680.694,606.112z M1031.451,422.887
			c2.042,35.783,20.961,55.21,12.781,87.931c-8.181,32.714-42.941,55.209-41.92-12.269c1.022-67.481-6.134-103.267-6.134-103.267
			s-5.11,41.919-11.245,65.435c-6.133,23.514-25.562,66.455-33.737,120.645l111.438-50.099
			c13.291-28.629-20.889-81.288-5.553-129.343c15.336-48.05,46.448-115.522,46.448-115.522S1029.406,387.105,1031.451,422.887z
			 M752.851,302.243c-1.024,32.721-3.067,51.124-6.135,84.862c-3.067,33.739-4.091,51.117-4.091,51.117
			S781.477,364.611,752.851,302.243z M942.905,246.65c-1.789,57.258,6.055,75.778,0.688,134.821
			c-5.367,59.044-18.58,103.143-18.58,103.143S992.998,355.79,942.905,246.65z M791.702,408.576
			c-3.067,21.471-1.465,56.733-24.983,90.472c-23.513,33.739-30.229,38.349-43.519,96.626c0,0,71.569-85.882,81.792-134.957
			c10.224-49.073-8.18-113.484-8.18-113.484S794.77,387.105,791.702,408.576z M1236.874,244.482c0,0-2.875,56.117-7.191,86.333
			c-4.317,30.22,13.472,45.547-21.288,121.202c-24.162,52.591-56.419,60.106-75.124,142.123c0,0,100.729-120.872,115.111-189.937
			C1262.773,335.131,1236.874,244.482,1236.874,244.482z M1133.195,497.979c0,0-2.783-56.122-1.527-86.617
			c1.257-30.501-10.733-67.241,17.429-117.813c28.15-50.572,99.932-70.386,110.296-153.871c0,0-146.341,130.385-153.706,200.549
			C1098.309,410.391,1133.195,497.979,1133.195,497.979z M382.304,302.75c-6.134,37.827,14.311,85.881,14.311,85.881l39.874-70.545
			l-37.83,40.895c0,0-8.178-33.739-9.202-53.164"/>
	</g>
	<path fill="#C61618" d="M437.603,452.427c68.628,23.003,55.465,61.985,67.734,63.518c8.021,1.004,23.619,2.712,24.537-4.091
		c6.262-46.391,55.485-56.94,72.206-63.261c0,0,4.984-4.218,6.901-12.269c1.785-7.497-2.3-19.937-2.3-19.937
		c-36.126,16.672-133.236,30.482-182.113,1.916c0,0-5.507,16.182,2.3,29.013C427.983,449.15,435.869,450.587,437.603,452.427z"/>
</g>
</svg>
